<?xml version="1.0" encoding="UTF-8"?>
<svg id="Camada_1" data-name="Camada 1" xmlns="http://www.w3.org/2000/svg" viewBox="0 0 500 250">
  <defs>
    <style>
      .cls-1 {
        fill: #eaeaea;
      }

      .cls-2 {
        fill: #d2d2d2;
      }

      .cls-3 {
        font-size: 19.34px;
      }

      .cls-3, .cls-4 {
        fill: #1b1b1b;
      }

      .cls-3, .cls-5 {
        font-family: Manrope-Bold, Manrope;
        font-weight: 700;
      }

      .cls-6 {
        opacity: .2;
      }

      .cls-6, .cls-7, .cls-8, .cls-9, .cls-10, .cls-11 {
        fill: none;
        stroke-width: .75px;
      }

      .cls-6, .cls-8, .cls-10 {
        stroke: #fff;
      }

      .cls-6, .cls-8, .cls-11 {
        stroke-linecap: round;
        stroke-linejoin: round;
      }

      .cls-12 {
        fill: #103b33;
      }

      .cls-7, .cls-9, .cls-10 {
        stroke-miterlimit: 10;
      }

      .cls-7, .cls-11 {
        stroke: rgba(255, 255, 255, .2);
      }

      .cls-9 {
        stroke: #1b1b1b;
      }

      .cls-13 {
        letter-spacing: 0em;
      }

      .cls-14 {
        letter-spacing: 0em;
      }

      .cls-15 {
        letter-spacing: 0em;
      }

      .cls-16 {
        letter-spacing: 0em;
      }

      .cls-17 {
        letter-spacing: 0em;
      }

      .cls-18 {
        letter-spacing: 0em;
      }

      .cls-19 {
        letter-spacing: 0em;
      }

      .cls-20 {
        fill: #ada690;
      }

      .cls-21, .cls-4 {
        font-family: Manrope-Medium, Manrope;
        font-weight: 500;
      }

      .cls-21, .cls-5 {
        fill: #fff;
        font-size: 11.6px;
      }

      .cls-22 {
        letter-spacing: -.06em;
      }

      .cls-4 {
        font-size: 10.71px;
      }

      .cls-23 {
        letter-spacing: -.02em;
      }

      .cls-24 {
        letter-spacing: -.02em;
      }

      .cls-25 {
        letter-spacing: -.03em;
      }

      .cls-26 {
        letter-spacing: -.02em;
      }

      .cls-27 {
        letter-spacing: -.02em;
      }

      .cls-28 {
        letter-spacing: -.02em;
      }

      .cls-29 {
        letter-spacing: -.02em;
      }

      .cls-30 {
        letter-spacing: -.02em;
      }

      .cls-31 {
        letter-spacing: -.02em;
      }

      .cls-32 {
        letter-spacing: -.02em;
      }

      .cls-33 {
        letter-spacing: -.02em;
      }

      .cls-34 {
        letter-spacing: -.01em;
      }

      .cls-35 {
        letter-spacing: -.03em;
      }

      .cls-36 {
        letter-spacing: -.03em;
      }

      .cls-37 {
        letter-spacing: -.03em;
      }

      .cls-38 {
        letter-spacing: -.03em;
      }

      .cls-39 {
        letter-spacing: -.03em;
      }

      .cls-40 {
        letter-spacing: -.03em;
      }

      .cls-41 {
        letter-spacing: 0em;
      }

      .cls-42 {
        letter-spacing: 0em;
      }

      .cls-43 {
        letter-spacing: 0em;
      }

      .cls-44 {
        letter-spacing: 0em;
      }

      .cls-45 {
        letter-spacing: 0em;
      }

      .cls-46 {
        letter-spacing: 0em;
      }

      .cls-47 {
        letter-spacing: 0em;
      }

      .cls-48 {
        letter-spacing: 0em;
      }

      .cls-49 {
        letter-spacing: 0em;
      }

      .cls-50 {
        letter-spacing: .02em;
      }

      .cls-51 {
        letter-spacing: .03em;
      }

      .cls-52 {
        letter-spacing: .02em;
      }

      .cls-53 {
        letter-spacing: .03em;
      }

      .cls-54 {
        letter-spacing: .02em;
      }

      .cls-55 {
        letter-spacing: .02em;
      }

      .cls-56 {
        letter-spacing: .02em;
      }

      .cls-57 {
        letter-spacing: .02em;
      }

      .cls-58 {
        letter-spacing: .02em;
      }

      .cls-59 {
        letter-spacing: .02em;
      }

      .cls-60 {
        letter-spacing: .01em;
      }

      .cls-61 {
        letter-spacing: .01em;
      }

      .cls-62 {
        letter-spacing: .01em;
      }

      .cls-63 {
        letter-spacing: .04em;
      }

      .cls-64 {
        letter-spacing: .04em;
      }

      .cls-65 {
        letter-spacing: .03em;
      }

      .cls-66 {
        letter-spacing: .03em;
      }

      .cls-67 {
        letter-spacing: .03em;
      }

      .cls-68 {
        letter-spacing: .03em;
      }

      .cls-69 {
        letter-spacing: .03em;
      }

      .cls-70 {
        letter-spacing: .04em;
      }

      .cls-71 {
        letter-spacing: .03em;
      }

      .cls-72 {
        letter-spacing: .04em;
      }

      .cls-73 {
        letter-spacing: .03em;
      }

      .cls-74 {
        letter-spacing: .03em;
      }

      .cls-75 {
        letter-spacing: .03em;
      }

      .cls-76 {
        letter-spacing: .03em;
      }

      .cls-77 {
        letter-spacing: .03em;
      }

      .cls-78 {
        letter-spacing: .03em;
      }

      .cls-79 {
        letter-spacing: .01em;
      }

      .cls-80 {
        letter-spacing: .01em;
      }

      .cls-81 {
        letter-spacing: .01em;
      }

      .cls-82 {
        letter-spacing: .01em;
      }

      .cls-83 {
        letter-spacing: .01em;
      }
    </style>
  </defs>
  <rect class="cls-1" width="250" height="250"/>
  <text class="cls-3" transform="translate(28.67 44.21) scale(.98 1)"><tspan class="cls-16" x="0" y="0">F</tspan><tspan class="cls-55" x="10.18" y="0">e</tspan><tspan class="cls-62" x="22.22" y="0">l</tspan><tspan class="cls-59" x="27.92" y="0">i</tspan><tspan class="cls-76" x="33.72" y="0">p</tspan><tspan class="cls-66" x="46.18" y="0">e </tspan><tspan class="cls-83" x="62.85" y="0">M</tspan><tspan class="cls-80" x="79.63" y="0">A</tspan><tspan class="cls-54" x="92.84" y="0">R</tspan><tspan class="cls-79" x="105.96" y="0">T</tspan><tspan class="cls-61" x="117.94" y="0">I</tspan><tspan class="cls-81" x="123.64" y="0">N</tspan><tspan class="cls-66" x="137.77" y="0">S</tspan></text>
  <line class="cls-9" x1="30" y1="77.67" x2="220" y2="77.67"/>
  <rect class="cls-12" x="250" width="250" height="250" transform="translate(250 500) rotate(-90)"/>
  <text class="cls-5" transform="translate(279.1 108.31) scale(.98 1)"><tspan class="cls-44" x="0" y="0">D</tspan><tspan class="cls-41" x="8.03" y="0">i</tspan><tspan class="cls-42" x="11.22" y="0">r</tspan><tspan class="cls-17" x="15.79" y="0">e</tspan><tspan class="cls-60" x="22.8" y="0">c</tspan><tspan class="cls-28" x="29.64" y="0">t</tspan><tspan class="cls-14" x="34.46" y="0">o</tspan><tspan x="41.64" y="0">r</tspan></text>
  <g>
    <text class="cls-21" transform="translate(285.33 137.23) scale(.98 1)"><tspan x="0" y="0" xml:space="preserve">      </tspan><tspan class="cls-46" x="13.92" y="0">c</tspan><tspan x="20.41" y="0">o</tspan><tspan class="cls-43" x="27.38" y="0">n</tspan><tspan class="cls-49" x="34.28" y="0">t</tspan><tspan class="cls-45" x="39.03" y="0">a</tspan><tspan class="cls-26" x="45.54" y="0">t</tspan><tspan class="cls-35" x="50.06" y="0">o</tspan><tspan class="cls-33" x="56.68" y="0">.</tspan><tspan class="cls-19" x="59.63" y="0">h</tspan><tspan x="66.65" y="0">o</tspan><tspan class="cls-15" x="73.61" y="0">m</tspan><tspan class="cls-27" x="83.66" y="0">e</tspan><tspan class="cls-38" x="90.24" y="0">@</tspan><tspan class="cls-48" x="100.44" y="0">b</tspan><tspan class="cls-13" x="107.38" y="0">a</tspan><tspan class="cls-18" x="113.92" y="0">m</tspan><tspan class="cls-48" x="123.96" y="0">h</tspan><tspan class="cls-47" x="130.96" y="0">u</tspan><tspan class="cls-39" x="137.94" y="0">b</tspan><tspan class="cls-25" x="144.57" y="0">.</tspan><tspan class="cls-46" x="147.38" y="0">c</tspan><tspan x="153.87" y="0">om</tspan><tspan x="0" y="32.08" xml:space="preserve">     </tspan><tspan class="cls-37" x="11.6" y="32.08">+</tspan><tspan class="cls-31" x="17.89" y="32.08">5</tspan><tspan x="24.4" y="32.08">5 </tspan><tspan class="cls-22" x="33.45" y="32.08">1</tspan><tspan x="37.5" y="32.08">1 </tspan><tspan class="cls-32" x="44.53" y="32.08">9</tspan><tspan class="cls-40" x="51.55" y="32.08">66</tspan><tspan class="cls-34" x="65.22" y="32.08">0</tspan><tspan class="cls-30" x="72.32" y="32.08">0</tspan><tspan class="cls-29" x="79.38" y="32.08">-</tspan><tspan class="cls-24" x="84.04" y="32.08">6</tspan><tspan class="cls-23" x="90.96" y="32.08">5</tspan><tspan class="cls-36" x="97.44" y="32.08">8</tspan><tspan x="103.92" y="32.08">2</tspan></text>
    <g>
      <path class="cls-8" d="M281.65,130.1h10.12c.7,0,1.26.57,1.26,1.26v7.59c0,.7-.57,1.26-1.26,1.26h-10.12c-.7,0-1.26-.57-1.26-1.26v-7.59c0-.7.57-1.26,1.26-1.26Z"/>
      <rect class="cls-6" x="280.39" y="130.1" width="12.64" height="10.12" rx="1.26" ry="1.26"/>
      <path class="cls-8" d="M293.03,131.36l-6.32,4.43-6.32-4.43"/>
      <polyline class="cls-6" points="293.03 131.36 286.71 135.79 280.39 131.36"/>
    </g>
    <g>
      <path class="cls-8" d="M291.25,170.06v-11.53c0-.58-.51-1.05-1.13-1.05h-6.81c-.63,0-1.13.47-1.13,1.05v11.53c0,.58.51,1.05,1.13,1.05h6.81c.63,0,1.13-.47,1.13-1.05Z"/>
      <path class="cls-6" d="M291.25,170.06v-11.53c0-.58-.51-1.05-1.13-1.05h-6.81c-.63,0-1.13.47-1.13,1.05v11.53c0,.58.51,1.05,1.13,1.05h6.81c.63,0,1.13-.47,1.13-1.05Z"/>
      <path class="cls-8" d="M286.71,160.63c.47,0,.85-.35.85-.79s-.38-.79-.85-.79-.85.35-.85.79.38.79.85.79Z"/>
      <ellipse class="cls-8" cx="286.71" cy="159.84" rx=".85" ry=".79"/>
    </g>
  </g>
  <g>
    <g>
      <path class="cls-10" d="M293.9,212.35c3.45,0,6.24-2.79,6.24-6.24s-2.79-6.24-6.24-6.24-6.24,2.79-6.24,6.24,2.79,6.24,6.24,6.24Z"/>
      <path class="cls-7" d="M293.9,212.35c3.45,0,6.24-2.79,6.24-6.24s-2.79-6.24-6.24-6.24-6.24,2.79-6.24,6.24,2.79,6.24,6.24,6.24Z"/>
      <path class="cls-8" d="M287.66,206.1h12.49"/>
      <path class="cls-11" d="M287.66,206.1h12.49"/>
      <path class="cls-10" d="M293.9,212.18c1.44,0,2.6-2.72,2.6-6.07s-1.16-6.07-2.6-6.07-2.6,2.72-2.6,6.07,1.16,6.07,2.6,6.07Z"/>
      <path class="cls-7" d="M293.9,212.18c1.44,0,2.6-2.72,2.6-6.07s-1.16-6.07-2.6-6.07-2.6,2.72-2.6,6.07,1.16,6.07,2.6,6.07Z"/>
    </g>
    <path class="cls-10" d="M314.61,192.58h27.04v27.04h-27.04v-27.04Z"/>
    <g>
      <path class="cls-10" d="M362.41,208.37c1.38,0,2.5-1.12,2.5-2.5s-1.12-2.5-2.5-2.5-2.5,1.12-2.5,2.5,1.12,2.5,2.5,2.5Z"/>
      <path class="cls-7" d="M362.41,208.37c1.38,0,2.5-1.12,2.5-2.5s-1.12-2.5-2.5-2.5-2.5,1.12-2.5,2.5,1.12,2.5,2.5,2.5Z"/>
      <path class="cls-8" d="M365.16,200.11h-5.51c-1.66,0-3,1.35-3,3v5.51c0,1.66,1.35,3,3,3h5.51c1.66,0,3-1.35,3-3v-5.51c0-1.66-1.35-3-3-3Z"/>
      <path class="cls-11" d="M365.16,200.11h-5.51c-1.66,0-3,1.35-3,3v5.51c0,1.66,1.35,3,3,3h5.51c1.66,0,3-1.35,3-3v-5.51c0-1.66-1.35-3-3-3Z"/>
      <path class="cls-10" d="M365.66,203.37c.41,0,.75-.34.75-.75s-.34-.75-.75-.75-.75.34-.75.75.34.75.75.75Z"/>
      <path class="cls-10" d="M365.66,203.37c.41,0,.75-.34.75-.75s-.34-.75-.75-.75-.75.34-.75.75.34.75.75.75Z"/>
    </g>
    <path class="cls-10" d="M348.84,192.58h27.04v27.04h-27.04v-27.04Z"/>
    <g>
      <path class="cls-8" d="M333.39,200.34h-10.52c-.28,0-.5.22-.5.5v10.52c0,.28.22.5.5.5h10.52c.28,0,.5-.22.5-.5v-10.52c0-.28-.22-.5-.5-.5Z"/>
      <path class="cls-11" d="M333.39,200.34h-10.52c-.28,0-.5.22-.5.5v10.52c0,.28.22.5.5.5h10.52c.28,0,.5-.22.5-.5v-10.52c0-.28-.22-.5-.5-.5Z"/>
      <path class="cls-8" d="M327.63,205.1v4.01"/>
      <path class="cls-11" d="M327.63,205.1v4.01"/>
      <path class="cls-8" d="M325.63,205.1v4.01"/>
      <path class="cls-11" d="M325.63,205.1v4.01"/>
      <path class="cls-8" d="M327.63,206.85c0-.46.18-.91.51-1.24.33-.33.77-.51,1.24-.51s.91.18,1.24.51c.33.33.51.77.51,1.24v2.25"/>
      <path class="cls-11" d="M327.63,206.85c0-.46.18-.91.51-1.24.33-.33.77-.51,1.24-.51s.91.18,1.24.51c.33.33.51.77.51,1.24v2.25"/>
      <path class="cls-10" d="M325.63,203.85c.41,0,.75-.34.75-.75s-.34-.75-.75-.75-.75.34-.75.75.34.75.75.75Z"/>
      <path class="cls-10" d="M325.63,203.85c.41,0,.75-.34.75-.75s-.34-.75-.75-.75-.75.34-.75.75.34.75.75.75Z"/>
    </g>
    <path class="cls-10" d="M280.38,192.58h27.04v27.04h-27.04v-27.04Z"/>
  </g>
  <g>
    <path class="cls-20" d="M296.25,30.03h13.02v13.02h-13.02v-13.02ZM296.25,46.31h13.02v13.02h-13.02v-13.02ZM279.97,30.03h6.51c3.6,0,6.51,2.92,6.51,6.51s-2.92,6.51-6.51,6.51h-6.51v-13.02ZM279.97,46.31h6.51c3.6,0,6.51,2.92,6.51,6.51s-2.92,6.51-6.51,6.51h-6.51v-13.02h0Z"/>
    <path class="cls-20" d="M320.27,59.33v-6.9h2.71c.44,0,.8.09,1.1.27.3.18.52.41.67.69.15.28.22.58.22.89,0,.38-.09.71-.28.98-.19.27-.44.46-.75.56v-.23c.43.11.77.32,1.01.64.24.32.36.68.36,1.1s-.08.76-.24,1.06c-.16.3-.4.53-.7.7-.31.17-.68.25-1.12.25h-2.97ZM321.28,55.24h1.68c.19,0,.35-.04.5-.11.15-.07.27-.18.36-.33.09-.14.13-.31.13-.52,0-.27-.09-.49-.27-.66-.18-.17-.42-.26-.72-.26h-1.68v1.87h0ZM321.28,58.37h1.8c.23,0,.43-.04.61-.13.18-.09.32-.21.43-.37.1-.16.16-.35.16-.58,0-.21-.05-.4-.14-.56-.09-.17-.22-.3-.39-.4-.17-.1-.37-.15-.6-.15h-1.86v2.19h0Z"/>
    <path class="cls-20" d="M332.67,59.47c-.54,0-1.02-.11-1.43-.33-.41-.22-.74-.53-.97-.94-.23-.4-.35-.87-.35-1.42v-4.36h1.02s0,4.3,0,4.3c0,.29.05.55.15.78.1.22.23.41.4.56.17.15.35.26.56.34.21.08.42.12.63.12s.43-.04.63-.12c.21-.08.39-.19.56-.34.17-.15.3-.34.4-.56.1-.22.15-.48.15-.77v-4.31h1.02v4.36c0,.54-.12,1.01-.35,1.42-.23.4-.56.72-.97.94-.41.22-.89.33-1.43.33h0Z"/>
    <path class="cls-20" d="M342.83,59.47c-.49,0-.94-.09-1.34-.26s-.72-.42-.98-.73c-.26-.32-.42-.7-.5-1.13l1.05-.16c.1.42.33.75.66.99.34.23.73.35,1.17.35.28,0,.53-.04.77-.13.23-.09.42-.21.56-.38.14-.16.21-.36.21-.59,0-.13-.02-.23-.06-.33-.04-.1-.1-.18-.18-.25-.07-.07-.17-.13-.27-.19-.11-.05-.23-.1-.35-.14l-1.77-.52c-.17-.05-.35-.12-.53-.2-.18-.08-.34-.19-.49-.32-.15-.13-.27-.3-.36-.49-.09-.2-.14-.43-.14-.72,0-.43.11-.79.33-1.08.22-.29.52-.52.89-.67.37-.15.79-.23,1.26-.23.47,0,.88.09,1.25.25.37.16.68.39.92.69.24.3.41.66.51,1.08l-1.07.18c-.05-.26-.15-.48-.31-.67-.16-.19-.35-.33-.57-.43-.23-.1-.47-.15-.74-.16-.26,0-.49.03-.7.12-.21.08-.38.2-.51.35-.13.15-.19.32-.19.52s.06.35.17.46c.11.12.25.21.41.28.16.07.33.13.49.17l1.28.36c.16.04.34.1.54.18.2.07.4.18.59.31.19.13.35.31.47.53s.19.5.19.84-.07.65-.21.92c-.14.26-.33.48-.58.66-.24.18-.53.31-.85.4-.32.09-.66.13-1.01.13h0Z"/>
    <path class="cls-20" d="M350.27,59.33v-6.9h1v6.9h-1Z"/>
    <path class="cls-20" d="M356.37,59.33v-6.9h1.02l3.4,5.13v-5.13h1.02v6.9h-1.02l-3.4-5.14v5.14h-1.02Z"/>
    <path class="cls-20" d="M366.85,59.33v-6.9h4.41v.94h-3.41v1.94h2.83v.94h-2.83v2.13h3.41v.94h-4.41Z"/>
    <path class="cls-20" d="M378.38,59.47c-.49,0-.94-.09-1.34-.26-.4-.17-.72-.42-.98-.73s-.42-.7-.5-1.13l1.04-.16c.1.42.33.75.66.99.34.23.73.35,1.17.35.28,0,.53-.04.77-.13.23-.09.42-.21.56-.38.14-.16.21-.36.21-.59,0-.13-.02-.23-.06-.33-.04-.1-.1-.18-.18-.25-.07-.07-.17-.13-.27-.19-.11-.05-.23-.1-.35-.14l-1.77-.52c-.17-.05-.35-.12-.53-.2-.18-.08-.34-.19-.49-.32-.15-.13-.27-.3-.36-.49-.09-.2-.14-.43-.14-.72,0-.43.11-.79.33-1.08.22-.29.52-.52.89-.67.37-.15.79-.23,1.26-.23.47,0,.88.09,1.25.25.37.16.68.39.92.69.24.3.41.66.51,1.08l-1.07.18c-.05-.26-.15-.48-.31-.67-.16-.19-.35-.33-.58-.43-.23-.1-.47-.15-.74-.16-.26,0-.49.03-.7.12-.21.08-.38.2-.51.35-.13.15-.19.32-.19.52s.06.35.17.46c.11.12.25.21.41.28.16.07.33.13.49.17l1.28.36c.16.04.34.1.54.18.2.07.4.18.59.31.19.13.35.31.47.53.13.22.19.5.19.84s-.07.65-.21.92c-.14.26-.33.48-.58.66-.24.18-.53.31-.84.4-.32.09-.66.13-1.01.13h0s0,0,0,0Z"/>
    <path class="cls-20" d="M388.29,59.47c-.49,0-.94-.09-1.34-.26-.4-.17-.72-.42-.98-.73s-.42-.7-.5-1.13l1.05-.16c.1.42.33.75.66.99.34.23.73.35,1.17.35.28,0,.53-.04.77-.13.23-.09.42-.21.56-.38.14-.16.21-.36.21-.59,0-.13-.02-.23-.06-.33-.04-.1-.1-.18-.18-.25-.07-.07-.17-.13-.27-.19-.11-.05-.22-.1-.35-.14l-1.77-.52c-.17-.05-.35-.12-.53-.2-.18-.08-.34-.19-.49-.32-.15-.13-.27-.3-.36-.49-.09-.2-.14-.43-.14-.72,0-.43.11-.79.33-1.08.22-.29.52-.52.89-.67.37-.15.79-.23,1.25-.23.47,0,.88.09,1.25.25.37.16.68.39.92.69.24.3.41.66.51,1.08l-1.07.18c-.05-.26-.15-.48-.31-.67-.16-.19-.35-.33-.57-.43-.23-.1-.47-.15-.74-.16-.26,0-.49.03-.7.12s-.38.2-.51.35-.19.32-.19.52.06.35.17.46c.11.12.25.21.41.28.16.07.33.13.49.17l1.28.36c.16.04.34.1.54.18.2.07.4.18.59.31.19.13.35.31.47.53s.19.5.19.84-.07.65-.21.92c-.14.26-.33.48-.58.66-.24.18-.53.31-.84.4-.32.09-.66.13-1.01.13h0s0,0,0,0Z"/>
    <path class="cls-20" d="M398.85,59.33v-6.9h1v2.98h3.45v-2.98h1.01v6.9h-1.01v-2.98h-3.45v2.98h-1Z"/>
    <path class="cls-20" d="M412.28,59.47c-.69,0-1.28-.15-1.76-.45-.49-.3-.86-.72-1.11-1.26-.26-.54-.39-1.17-.39-1.88s.13-1.34.39-1.88.63-.96,1.11-1.26c.49-.3,1.07-.45,1.76-.45s1.27.15,1.76.45c.49.3.86.72,1.11,1.26.26.54.38,1.17.38,1.88s-.13,1.34-.38,1.88c-.26.54-.63.96-1.11,1.26-.49.3-1.07.45-1.76.45ZM412.28,58.52c.49,0,.89-.1,1.22-.32.32-.22.57-.53.73-.93.16-.4.24-.86.24-1.39s-.08-.99-.24-1.38c-.16-.4-.41-.7-.73-.92-.32-.22-.73-.33-1.22-.34-.49,0-.89.1-1.22.32-.32.22-.57.53-.73.93-.16.4-.25.86-.25,1.39,0,.53.08.99.24,1.38.16.4.41.7.74.92.33.22.74.33,1.22.34h0Z"/>
    <path class="cls-20" d="M420.24,59.33v-6.9h.91l2.5,5.19,2.49-5.19h.91v6.9h-.95v-4.72l-2.23,4.73h-.46l-2.23-4.73v4.73h-.95Z"/>
    <path class="cls-20" d="M432.1,59.33v-6.9h4.41v.94h-3.41v1.94h2.83v.94h-2.83v2.13h3.41v.94h-4.41Z"/>
    <path class="cls-2" d="M328.99,38.41c.47-.28.87-.65,1.19-1.09.52-.71.79-1.55.79-2.5,0-1.56-.52-2.77-1.53-3.58-.99-.8-2.44-1.21-4.31-1.21h-5.32v17.59h5.97c1.79,0,3.21-.45,4.22-1.34,1.04-.91,1.56-2.18,1.56-3.78,0-1.06-.33-2.01-.98-2.83-.43-.55-.97-.97-1.6-1.26h0ZM321.99,39.53h3.96c1.09,0,1.94.27,2.54.82.6.53.89,1.24.89,2.17,0,.99-.31,1.74-.93,2.3-.63.55-1.51.83-2.61.83h-3.84v-6.11h0ZM327.94,36.83c-.57.47-1.41.72-2.48.74h-3.46v-5.56h3.13c1.26,0,2.2.23,2.79.7.58.43.86,1.11.86,2.07s-.27,1.58-.83,2.05h0ZM372.61,30.03h2.53v17.59h-2.18v-7.71l.08-5.51-5.54,13.22h-1.6l-5.52-13.16.08,5.4v7.76h-2.18v-17.59h2.52l5.9,14.22,5.92-14.22ZM435.53,39.67c-.44-.55-.97-.97-1.6-1.26.47-.28.87-.65,1.19-1.09.52-.71.79-1.55.79-2.5,0-1.56-.52-2.77-1.53-3.58-.99-.8-2.44-1.21-4.31-1.21h-5.32v17.59h5.97c1.79,0,3.21-.45,4.22-1.34,1.04-.91,1.57-2.18,1.57-3.78,0-1.06-.33-2.01-.98-2.83h0ZM426.93,39.53h3.96c1.09,0,1.94.27,2.54.82.6.53.89,1.24.89,2.17,0,.99-.31,1.74-.93,2.3-.63.55-1.51.83-2.61.83h-3.84v-6.11h0ZM432.88,36.83c-.57.47-1.41.72-2.48.74h-3.46v-5.56h3.13c1.26,0,2.2.23,2.79.7.58.43.86,1.11.86,2.07s-.27,1.58-.83,2.05h0ZM414.69,30.03h2.2v11.87c0,1.2-.28,2.26-.8,3.15-.53.9-1.28,1.6-2.23,2.09-.94.47-2.03.71-3.24.71-1.85,0-3.36-.52-4.49-1.54-1.13-1.04-1.73-2.49-1.77-4.3v-11.98h2.17v11.76c0,1.3.37,2.32,1.09,3.03.73.71,1.71,1.06,3,1.06s2.27-.36,2.98-1.07c.73-.72,1.09-1.7,1.09-3v-11.78h0ZM343.57,30.03l-6.61,17.59h2.31l1.72-4.71h7.04l1.73,4.71h2.3l-6.61-17.59h-1.88ZM347.3,40.92h-5.59l2.79-7.64,2.79,7.64ZM394.24,30.03h2.2v17.59h-2.2v-8.06h-8.77v8.06h-2.18v-17.59h2.18v7.55h8.77v-7.55Z"/>
  </g>
  <text class="cls-4" transform="translate(29.58 203.72) scale(.98 1)"><tspan class="cls-57" x="0" y="0">L</tspan><tspan class="cls-72" x="5.76" y="0">u</tspan><tspan class="cls-82" x="12.62" y="0">x</tspan><tspan class="cls-77" x="18.48" y="0">e</tspan><tspan class="cls-68" x="25.13" y="0">m</tspan><tspan class="cls-64" x="34.76" y="0">b</tspan><tspan class="cls-69" x="41.57" y="0">o</tspan><tspan class="cls-78" x="48.36" y="0">u</tspan><tspan class="cls-56" x="55.16" y="0">r</tspan><tspan class="cls-65" x="59.41" y="0">g - </tspan><tspan class="cls-58" x="75.9" y="0">M</tspan><tspan class="cls-53" x="85.21" y="0">i</tspan><tspan class="cls-70" x="88.17" y="0">a</tspan><tspan class="cls-67" x="94.57" y="0">mi - </tspan><tspan class="cls-71" x="116.88" y="0">S</tspan><tspan class="cls-64" x="123.98" y="0">ã</tspan><tspan class="cls-67" x="130.39" y="0">o </tspan><tspan class="cls-50" x="139.6" y="0">P</tspan><tspan class="cls-68" x="146.43" y="0">a</tspan><tspan class="cls-51" x="152.81" y="0">u</tspan><tspan class="cls-75" x="159.56" y="0">l</tspan><tspan class="cls-67" x="162.54" y="0">o</tspan><tspan class="cls-73" x="0" y="16.28">M</tspan><tspan class="cls-63" x="9.37" y="16.28">a</tspan><tspan class="cls-78" x="15.77" y="16.28">d</tspan><tspan class="cls-52" x="22.53" y="16.28">r</tspan><tspan class="cls-74" x="26.79" y="16.28">i</tspan><tspan class="cls-65" x="29.76" y="16.28">d</tspan></text>
</svg>