<?xml version="1.0" encoding="UTF-8"?>
<svg id="Camada_1" data-name="Camada 1" xmlns="http://www.w3.org/2000/svg" viewBox="0 0 750 250">
  <defs>
    <style>
      .cls-1, .cls-2, .cls-3, .cls-4, .cls-5, .cls-6, .cls-7, .cls-8, .cls-9, .cls-10, .cls-11 {
        fill: none;
        stroke-width: .75px;
      }

      .cls-1, .cls-2, .cls-4, .cls-7, .cls-8, .cls-9 {
        stroke-linecap: round;
        stroke-linejoin: round;
      }

      .cls-1, .cls-10 {
        stroke: rgba(27, 27, 27, .2);
      }

      .cls-12 {
        fill: #159f50;
      }

      .cls-13 {
        fill: #eaeaea;
      }

      .cls-14 {
        font-size: 19.34px;
      }

      .cls-14, .cls-15, .cls-16, .cls-17, .cls-18 {
        fill: #1b1b1b;
      }

      .cls-14, .cls-16, .cls-19 {
        font-family: Manrope-Bold, Manrope;
        font-weight: 700;
      }

      .cls-2, .cls-4, .cls-6 {
        stroke: #fff;
      }

      .cls-2, .cls-7 {
        opacity: .2;
      }

      .cls-3, .cls-5, .cls-6, .cls-10, .cls-11 {
        stroke-miterlimit: 10;
      }

      .cls-3, .cls-9 {
        stroke: rgba(255, 255, 255, .2);
      }

      .cls-5 {
        stroke: #1b1b1b;
      }

      .cls-20 {
        letter-spacing: 0em;
      }

      .cls-21 {
        letter-spacing: 0em;
      }

      .cls-22, .cls-23, .cls-19 {
        fill: #fff;
      }

      .cls-24 {
        letter-spacing: 0em;
      }

      .cls-25 {
        letter-spacing: 0em;
      }

      .cls-26 {
        letter-spacing: 0em;
      }

      .cls-7, .cls-8, .cls-11 {
        stroke: #1b1b1b;
      }

      .cls-27 {
        letter-spacing: 0em;
      }

      .cls-28 {
        letter-spacing: 0em;
      }

      .cls-15, .cls-23, .cls-16, .cls-19 {
        font-size: 11.6px;
      }

      .cls-15, .cls-23, .cls-17 {
        font-family: Manrope-Medium, Manrope;
        font-weight: 500;
      }

      .cls-29 {
        fill: #ada690;
      }

      .cls-30 {
        fill: #ab1f23;
      }

      .cls-31 {
        letter-spacing: -.06em;
      }

      .cls-17 {
        font-size: 10.71px;
      }

      .cls-32 {
        letter-spacing: -.02em;
      }

      .cls-33 {
        letter-spacing: -.02em;
      }

      .cls-34 {
        letter-spacing: -.03em;
      }

      .cls-35 {
        letter-spacing: -.03em;
      }

      .cls-36 {
        letter-spacing: -.02em;
      }

      .cls-37 {
        letter-spacing: -.02em;
      }

      .cls-38 {
        letter-spacing: -.02em;
      }

      .cls-39 {
        letter-spacing: -.02em;
      }

      .cls-40 {
        letter-spacing: -.02em;
      }

      .cls-41 {
        letter-spacing: -.02em;
      }

      .cls-42 {
        letter-spacing: -.02em;
      }

      .cls-43 {
        letter-spacing: -.02em;
      }

      .cls-44 {
        letter-spacing: -.01em;
      }

      .cls-45 {
        letter-spacing: -.03em;
      }

      .cls-46 {
        letter-spacing: -.03em;
      }

      .cls-47 {
        letter-spacing: -.03em;
      }

      .cls-48 {
        letter-spacing: -.03em;
      }

      .cls-49 {
        letter-spacing: -.03em;
      }

      .cls-50 {
        letter-spacing: -.03em;
      }

      .cls-51 {
        letter-spacing: 0em;
      }

      .cls-52 {
        fill: #ef9121;
      }

      .cls-53 {
        letter-spacing: 0em;
      }

      .cls-54 {
        letter-spacing: 0em;
      }

      .cls-55 {
        letter-spacing: 0em;
      }

      .cls-56 {
        letter-spacing: 0em;
      }

      .cls-57 {
        letter-spacing: 0em;
      }

      .cls-58 {
        letter-spacing: 0em;
      }

      .cls-59 {
        letter-spacing: 0em;
      }

      .cls-60 {
        letter-spacing: 0em;
      }

      .cls-61 {
        letter-spacing: 0em;
      }

      .cls-62 {
        letter-spacing: 0em;
      }

      .cls-63 {
        letter-spacing: 0em;
      }

      .cls-64 {
        letter-spacing: 0em;
      }

      .cls-65 {
        letter-spacing: 0em;
      }

      .cls-66 {
        fill: #3e97d3;
        fill-rule: evenodd;
      }

      .cls-67 {
        fill: #7d499c;
      }

      .cls-68 {
        letter-spacing: 0em;
      }

      .cls-69 {
        letter-spacing: .02em;
      }

      .cls-70 {
        letter-spacing: .03em;
      }

      .cls-71 {
        letter-spacing: .02em;
      }

      .cls-72 {
        letter-spacing: .03em;
      }

      .cls-73 {
        letter-spacing: .02em;
      }

      .cls-74 {
        letter-spacing: .02em;
      }

      .cls-75 {
        letter-spacing: .02em;
      }

      .cls-76 {
        letter-spacing: .02em;
      }

      .cls-77 {
        letter-spacing: .02em;
      }

      .cls-78 {
        letter-spacing: .02em;
      }

      .cls-79 {
        letter-spacing: .01em;
      }

      .cls-80 {
        letter-spacing: .01em;
      }

      .cls-81 {
        letter-spacing: .01em;
      }

      .cls-82 {
        letter-spacing: .04em;
      }

      .cls-83 {
        letter-spacing: .04em;
      }

      .cls-84 {
        letter-spacing: .03em;
      }

      .cls-85 {
        letter-spacing: .03em;
      }

      .cls-86 {
        letter-spacing: .03em;
      }

      .cls-87 {
        letter-spacing: .03em;
      }

      .cls-88 {
        letter-spacing: .03em;
      }

      .cls-89 {
        letter-spacing: .04em;
      }

      .cls-90 {
        letter-spacing: .03em;
      }

      .cls-91 {
        letter-spacing: .04em;
      }

      .cls-92 {
        letter-spacing: .03em;
      }

      .cls-93 {
        letter-spacing: .03em;
      }

      .cls-94 {
        letter-spacing: .03em;
      }

      .cls-95 {
        letter-spacing: .03em;
      }

      .cls-96 {
        letter-spacing: .03em;
      }

      .cls-97 {
        letter-spacing: .03em;
      }

      .cls-98 {
        letter-spacing: .01em;
      }

      .cls-99 {
        letter-spacing: .01em;
      }

      .cls-100 {
        letter-spacing: .01em;
      }

      .cls-101 {
        letter-spacing: .01em;
      }

      .cls-102 {
        letter-spacing: .01em;
      }
    </style>
  </defs>
  <rect class="cls-13" width="250" height="250"/>
  <text class="cls-14" transform="translate(28.67 44.21) scale(.98 1)"><tspan class="cls-24" x="0" y="0">F</tspan><tspan class="cls-74" x="10.18" y="0">e</tspan><tspan class="cls-81" x="22.22" y="0">l</tspan><tspan class="cls-78" x="27.92" y="0">i</tspan><tspan class="cls-95" x="33.72" y="0">p</tspan><tspan class="cls-85" x="46.18" y="0">e </tspan><tspan class="cls-102" x="62.85" y="0">M</tspan><tspan class="cls-99" x="79.63" y="0">A</tspan><tspan class="cls-73" x="92.84" y="0">R</tspan><tspan class="cls-98" x="105.96" y="0">T</tspan><tspan class="cls-80" x="117.94" y="0">I</tspan><tspan class="cls-100" x="123.64" y="0">N</tspan><tspan class="cls-85" x="137.77" y="0">S</tspan></text>
  <line class="cls-5" x1="30" y1="77.67" x2="220" y2="77.67"/>
  <g>
    <rect class="cls-29" x="500" width="250" height="250" transform="translate(500 750) rotate(-90)"/>
    <text class="cls-16" transform="translate(529.12 108.31) scale(.98 1)"><tspan class="cls-56" x="0" y="0">D</tspan><tspan class="cls-53" x="8.03" y="0">i</tspan><tspan class="cls-54" x="11.22" y="0">r</tspan><tspan class="cls-25" x="15.79" y="0">e</tspan><tspan class="cls-79" x="22.8" y="0">c</tspan><tspan class="cls-39" x="29.64" y="0">t</tspan><tspan class="cls-21" x="34.46" y="0">o</tspan><tspan x="41.64" y="0">r</tspan></text>
    <text class="cls-15" transform="translate(535.52 137.52) scale(.98 1)"><tspan x="0" y="0" xml:space="preserve">      </tspan><tspan class="cls-61" x="13.92" y="0">c</tspan><tspan x="20.41" y="0">o</tspan><tspan class="cls-55" x="27.38" y="0">n</tspan><tspan class="cls-65" x="34.28" y="0">t</tspan><tspan class="cls-59" x="39.03" y="0">a</tspan><tspan class="cls-36" x="45.54" y="0">t</tspan><tspan class="cls-38" x="50.06" y="0">o</tspan><tspan class="cls-48" x="56.8" y="0">@</tspan><tspan class="cls-64" x="66.99" y="0">b</tspan><tspan class="cls-20" x="73.93" y="0">a</tspan><tspan class="cls-27" x="80.48" y="0">m</tspan><tspan class="cls-64" x="90.52" y="0">h</tspan><tspan class="cls-62" x="97.51" y="0">u</tspan><tspan class="cls-49" x="104.49" y="0">b</tspan><tspan class="cls-35" x="111.12" y="0">.</tspan><tspan class="cls-60" x="113.94" y="0">c</tspan><tspan x="120.43" y="0">om</tspan><tspan x="0" y="32.08" xml:space="preserve">     </tspan><tspan class="cls-47" x="11.6" y="32.08">+</tspan><tspan class="cls-42" x="17.89" y="32.08">5</tspan><tspan x="24.4" y="32.08">5 </tspan><tspan class="cls-31" x="33.45" y="32.08">1</tspan><tspan x="37.5" y="32.08">1 </tspan><tspan class="cls-43" x="44.53" y="32.08">9</tspan><tspan class="cls-50" x="51.55" y="32.08">66</tspan><tspan class="cls-44" x="65.22" y="32.08">0</tspan><tspan class="cls-41" x="72.32" y="32.08">0</tspan><tspan class="cls-40" x="79.38" y="32.08">-</tspan><tspan class="cls-33" x="84.04" y="32.08">6</tspan><tspan class="cls-32" x="90.96" y="32.08">5</tspan><tspan class="cls-46" x="97.44" y="32.08">8</tspan><tspan x="103.92" y="32.08">2</tspan></text>
    <g>
      <path class="cls-8" d="M531.84,130.4h10.12c.7,0,1.26.57,1.26,1.26v7.59c0,.7-.57,1.26-1.26,1.26h-10.12c-.7,0-1.26-.57-1.26-1.26v-7.59c0-.7.57-1.26,1.26-1.26Z"/>
      <rect class="cls-7" x="530.58" y="130.4" width="12.64" height="10.12" rx="1.26" ry="1.26"/>
      <path class="cls-8" d="M543.22,131.66l-6.32,4.43-6.32-4.43"/>
      <polyline class="cls-7" points="543.22 131.66 536.9 136.09 530.58 131.66"/>
    </g>
    <g>
      <path class="cls-8" d="M541.44,170.36v-11.53c0-.58-.51-1.05-1.13-1.05h-6.81c-.63,0-1.13.47-1.13,1.05v11.53c0,.58.51,1.05,1.13,1.05h6.81c.63,0,1.13-.47,1.13-1.05Z"/>
      <path class="cls-7" d="M541.44,170.36v-11.53c0-.58-.51-1.05-1.13-1.05h-6.81c-.63,0-1.13.47-1.13,1.05v11.53c0,.58.51,1.05,1.13,1.05h6.81c.63,0,1.13-.47,1.13-1.05Z"/>
      <path class="cls-8" d="M536.9,160.93c.47,0,.85-.35.85-.79s-.38-.79-.85-.79-.85.35-.85.79.38.79.85.79Z"/>
      <ellipse class="cls-8" cx="536.9" cy="160.14" rx=".85" ry=".79"/>
    </g>
    <g>
      <g>
        <path class="cls-11" d="M543.91,212.33c3.45,0,6.24-2.79,6.24-6.24s-2.79-6.24-6.24-6.24-6.24,2.79-6.24,6.24,2.79,6.24,6.24,6.24Z"/>
        <path class="cls-10" d="M543.91,212.33c3.45,0,6.24-2.79,6.24-6.24s-2.79-6.24-6.24-6.24-6.24,2.79-6.24,6.24,2.79,6.24,6.24,6.24Z"/>
        <path class="cls-8" d="M537.67,206.09h12.49"/>
        <path class="cls-1" d="M537.67,206.09h12.49"/>
        <path class="cls-11" d="M543.91,212.16c1.44,0,2.6-2.72,2.6-6.07s-1.16-6.07-2.6-6.07-2.6,2.72-2.6,6.07,1.16,6.07,2.6,6.07Z"/>
        <path class="cls-10" d="M543.91,212.16c1.44,0,2.6-2.72,2.6-6.07s-1.16-6.07-2.6-6.07-2.6,2.72-2.6,6.07,1.16,6.07,2.6,6.07Z"/>
      </g>
      <path class="cls-11" d="M564.62,192.57h27.04v27.04h-27.04v-27.04Z"/>
      <g>
        <path class="cls-11" d="M612.42,208.36c1.38,0,2.5-1.12,2.5-2.5s-1.12-2.5-2.5-2.5-2.5,1.12-2.5,2.5,1.12,2.5,2.5,2.5Z"/>
        <path class="cls-10" d="M612.42,208.36c1.38,0,2.5-1.12,2.5-2.5s-1.12-2.5-2.5-2.5-2.5,1.12-2.5,2.5,1.12,2.5,2.5,2.5Z"/>
        <path class="cls-8" d="M615.17,200.1h-5.51c-1.66,0-3,1.35-3,3v5.51c0,1.66,1.35,3,3,3h5.51c1.66,0,3-1.35,3-3v-5.51c0-1.66-1.35-3-3-3Z"/>
        <path class="cls-1" d="M615.17,200.1h-5.51c-1.66,0-3,1.35-3,3v5.51c0,1.66,1.35,3,3,3h5.51c1.66,0,3-1.35,3-3v-5.51c0-1.66-1.35-3-3-3Z"/>
        <path class="cls-11" d="M615.67,203.35c.41,0,.75-.34.75-.75s-.34-.75-.75-.75-.75.34-.75.75.34.75.75.75Z"/>
        <path class="cls-11" d="M615.67,203.35c.41,0,.75-.34.75-.75s-.34-.75-.75-.75-.75.34-.75.75.34.75.75.75Z"/>
      </g>
      <path class="cls-11" d="M598.85,192.57h27.04v27.04h-27.04v-27.04Z"/>
      <g>
        <path class="cls-8" d="M583.4,200.33h-10.52c-.28,0-.5.22-.5.5v10.52c0,.28.22.5.5.5h10.52c.28,0,.5-.22.5-.5v-10.52c0-.28-.22-.5-.5-.5Z"/>
        <path class="cls-1" d="M583.4,200.33h-10.52c-.28,0-.5.22-.5.5v10.52c0,.28.22.5.5.5h10.52c.28,0,.5-.22.5-.5v-10.52c0-.28-.22-.5-.5-.5Z"/>
        <path class="cls-8" d="M577.64,205.09v4.01"/>
        <path class="cls-1" d="M577.64,205.09v4.01"/>
        <path class="cls-8" d="M575.64,205.09v4.01"/>
        <path class="cls-1" d="M575.64,205.09v4.01"/>
        <path class="cls-8" d="M577.64,206.84c0-.46.18-.91.51-1.24.33-.33.77-.51,1.24-.51s.91.18,1.24.51c.33.33.51.77.51,1.24v2.25"/>
        <path class="cls-1" d="M577.64,206.84c0-.46.18-.91.51-1.24.33-.33.77-.51,1.24-.51s.91.18,1.24.51c.33.33.51.77.51,1.24v2.25"/>
        <path class="cls-11" d="M575.64,203.84c.41,0,.75-.34.75-.75s-.34-.75-.75-.75-.75.34-.75.75.34.75.75.75Z"/>
        <path class="cls-11" d="M575.64,203.84c.41,0,.75-.34.75-.75s-.34-.75-.75-.75-.75.34-.75.75.34.75.75.75Z"/>
      </g>
      <path class="cls-11" d="M530.39,192.57h27.04v27.04h-27.04v-27.04Z"/>
    </g>
    <g>
      <path class="cls-18" d="M546.14,30.03h12.91v12.91h-12.91v-12.91ZM546.14,46.17h12.91v12.91h-12.91v-12.91ZM530,30.03h6.46c3.56,0,6.46,2.89,6.46,6.46s-2.89,6.46-6.46,6.46h-6.46v-12.91ZM530,46.17h6.46c3.56,0,6.46,2.89,6.46,6.46s-2.89,6.46-6.46,6.46h-6.46v-12.91Z"/>
      <path class="cls-18" d="M578.3,38.77c.49-.3.91-.68,1.24-1.14.54-.74.82-1.62.82-2.61,0-1.63-.54-2.89-1.6-3.74-1.03-.83-2.55-1.26-4.5-1.26h-5.55v18.35h6.23c1.86,0,3.34-.47,4.41-1.4,1.08-.95,1.63-2.28,1.63-3.94,0-1.11-.34-2.1-1.02-2.95-.45-.58-1.01-1.02-1.67-1.32ZM571,39.94h4.13c1.13,0,2.03.29,2.65.85.62.55.93,1.29.93,2.26,0,1.04-.32,1.82-.97,2.39-.65.57-1.57.86-2.72.86h-4.01v-6.37ZM577.2,37.12c-.59.49-1.47.75-2.59.77h-3.61v-5.79h3.27c1.31,0,2.29.24,2.92.73.6.45.89,1.16.89,2.16s-.28,1.65-.87,2.14ZM623.81,30.03h2.63v18.35h-2.28v-8.04l.09-5.75-5.78,13.79h-1.67l-5.75-13.73.09,5.63v8.1h-2.28v-18.35h2.62l6.15,14.83,6.18-14.83ZM689.44,40.08c-.45-.58-1.01-1.02-1.67-1.32.49-.3.91-.68,1.24-1.14.54-.74.82-1.62.82-2.61,0-1.63-.54-2.89-1.6-3.74-1.03-.83-2.55-1.26-4.5-1.26h-5.55v18.35h6.23c1.86,0,3.34-.47,4.4-1.4,1.08-.95,1.63-2.28,1.63-3.94,0-1.11-.34-2.1-1.02-2.95ZM680.47,39.94h4.13c1.13,0,2.03.29,2.65.85.62.55.93,1.29.93,2.26,0,1.04-.32,1.82-.97,2.39-.65.57-1.57.86-2.72.86h-4.01v-6.37ZM686.68,37.12c-.59.49-1.47.75-2.59.77h-3.61v-5.79h3.27c1.31,0,2.29.24,2.92.73.6.45.89,1.16.89,2.16s-.28,1.65-.87,2.14ZM667.71,30.03h2.29v12.38c0,1.25-.29,2.36-.83,3.29-.55.94-1.33,1.67-2.33,2.18-.98.49-2.12.74-3.38.74-1.93,0-3.5-.54-4.69-1.61-1.18-1.09-1.8-2.59-1.84-4.48v-12.5s2.27,0,2.27,0v12.27c0,1.36.38,2.42,1.13,3.16.76.74,1.79,1.1,3.13,1.1s2.37-.37,3.11-1.11c.77-.75,1.14-1.77,1.14-3.14v-12.28ZM593.51,30.03l-6.89,18.35h2.41l1.79-4.92h7.34l1.81,4.92h2.4l-6.89-18.35h-1.96ZM597.4,41.39h-5.83l2.92-7.97,2.92,7.97ZM646.37,30.03h2.29v18.35h-2.29v-8.41h-9.14v8.41h-2.28v-18.35h2.28v7.88h9.14v-7.88Z"/>
      <g>
        <path class="cls-18" d="M573.31,57.38c0,.36-.13.72-.35,1.02-.23.29-.54.48-.87.59-.21.06-.43.09-.64.09h-2.27v-5.71h2.15c.19,0,.41.02.58.07.32.09.6.28.79.55.21.25.32.59.34.94.02.33-.11.67-.32.94-.03.05-.07.1-.1.13.13.1.26.23.36.37.22.29.33.65.33,1.02ZM570.08,54.19v1.47h1.42c.16-.03.36-.13.48-.29.1-.13.16-.29.15-.45,0-.18-.07-.35-.19-.48-.13-.15-.32-.25-.52-.25h-1.34ZM572.41,57.38c0-.21-.08-.43-.21-.59-.17-.21-.41-.29-.63-.29h-1.47v1.72h1.36c.29,0,.52-.04.71-.25.17-.15.25-.36.26-.59Z"/>
        <path class="cls-18" d="M581.77,56.96c0,.52-.17,1.02-.5,1.42-.42.54-1.09.81-1.78.81s-1.36-.28-1.78-.81c-.32-.39-.51-.93-.51-1.42v-3.59h.9s0,3.48,0,3.48c0,.37.06.67.29.98.26.33.68.52,1.1.52s.83-.19,1.09-.53c.23-.3.29-.59.29-.97v-3.49h.9v3.6Z"/>
        <path class="cls-18" d="M589.19,55.04c-.14-.33-.3-.57-.59-.75-.21-.13-.48-.22-.75-.22s-.55.06-.75.17c-.23.13-.36.36-.36.58,0,.14.06.27.15.37.13.13.41.25.71.33l1.01.29c.47.13.78.29,1.04.54.32.31.51.71.51,1.16,0,.49-.28,1-.71,1.29-.42.29-.94.37-1.52.37-.75,0-1.4-.21-1.85-.78-.26-.33-.4-.72-.49-1.09l.9-.25c.06.29.15.56.31.75.25.36.73.52,1.17.52.33,0,.74-.09.97-.26.21-.16.29-.38.29-.58,0-.18-.07-.36-.21-.48-.15-.14-.34-.24-.59-.31l-1.05-.31c-.41-.12-.79-.27-1.08-.52-.32-.28-.46-.69-.46-1.07,0-.59.38-1.11.88-1.34.4-.19.79-.23,1.17-.23.4,0,.82.08,1.19.29.48.26.84.71,1.05,1.28l-.9.25Z"/>
        <path class="cls-18" d="M594.91,53.35v5.71h-.9v-5.71h.9Z"/>
        <path class="cls-18" d="M602.69,57.42v-4.07h.9v5.71h-.79l-2.77-4.07v4.07h-.91v-5.71h.79l2.78,4.07Z"/>
        <path class="cls-18" d="M608.73,54.24v1.52h2.27v.89h-2.27v1.52h2.75v.9h-3.65v-5.71h3.65v.89h-2.75Z"/>
        <path class="cls-18" d="M618.67,55.04c-.14-.33-.3-.57-.59-.75-.21-.13-.48-.22-.75-.22s-.55.06-.75.17c-.23.13-.36.36-.36.58,0,.14.06.27.15.37.13.13.41.25.71.33l1.01.29c.47.13.78.29,1.04.54.32.31.51.71.51,1.16,0,.49-.28,1-.71,1.29-.42.29-.94.37-1.52.37-.75,0-1.4-.21-1.85-.78-.26-.33-.4-.72-.49-1.09l.9-.25c.06.29.15.56.31.75.25.36.73.52,1.17.52.33,0,.74-.09.97-.26.21-.16.29-.38.29-.58,0-.18-.07-.36-.21-.48-.15-.14-.34-.24-.59-.31l-1.05-.31c-.41-.12-.79-.27-1.08-.52-.32-.28-.46-.69-.46-1.07,0-.59.38-1.11.88-1.34.4-.19.79-.23,1.17-.23.4,0,.82.08,1.19.29.48.26.84.71,1.05,1.28l-.9.25Z"/>
        <path class="cls-18" d="M626.83,55.04c-.14-.33-.3-.57-.59-.75-.21-.13-.48-.22-.75-.22s-.55.06-.75.17c-.23.13-.36.36-.36.58,0,.14.06.27.15.37.13.13.41.25.71.33l1.01.29c.47.13.78.29,1.04.54.32.31.51.71.51,1.16,0,.49-.28,1-.71,1.29-.42.29-.94.37-1.52.37-.75,0-1.4-.21-1.85-.78-.26-.33-.4-.72-.49-1.09l.9-.25c.06.29.15.56.31.75.25.36.73.52,1.17.52.33,0,.74-.09.97-.26.21-.16.29-.38.29-.58,0-.18-.07-.36-.21-.48-.15-.14-.34-.24-.59-.31l-1.05-.31c-.41-.12-.79-.27-1.08-.52-.32-.28-.46-.69-.46-1.07,0-.59.38-1.11.88-1.34.4-.19.79-.23,1.17-.23.4,0,.82.08,1.19.29.48.26.84.71,1.05,1.28l-.9.25Z"/>
        <path class="cls-18" d="M635.17,54.24v1.52h2.27v.89h-2.27v1.52h2.75v.9h-3.65v-5.71h3.65v.89h-2.75Z"/>
        <path class="cls-18" d="M647.68,59.07h-.9v-3.78l-1.79,3.78h-.38l-1.8-3.78v3.78h-.9v-5.71h.9l1.99,4.17,1.98-4.17h.9v5.71Z"/>
        <path class="cls-18" d="M656.05,57.38c0,.36-.13.72-.35,1.02-.23.29-.54.48-.87.59-.21.06-.43.09-.64.09h-2.27v-5.71h2.15c.19,0,.41.02.58.07.32.09.6.28.79.55.21.25.32.59.34.94.02.33-.11.67-.32.94-.03.05-.07.1-.1.13.13.1.26.23.36.37.22.29.33.65.33,1.02ZM652.82,54.19v1.47h1.42c.16-.03.36-.13.48-.29.1-.13.16-.29.15-.45,0-.18-.07-.35-.19-.48-.13-.15-.32-.25-.52-.25h-1.34ZM655.15,57.38c0-.21-.08-.43-.21-.59-.17-.21-.41-.29-.63-.29h-1.47v1.72h1.36c.29,0,.52-.04.71-.25.17-.15.25-.36.26-.59Z"/>
        <path class="cls-18" d="M663.07,58.09h-2.48l-.31.98h-.92l1.83-5.71h1.29l1.83,5.71h-.93l-.32-.98ZM662.8,57.25l-.97-3.01-.97,3.01h1.94Z"/>
        <path class="cls-18" d="M671.17,55.04c-.14-.33-.3-.57-.59-.75-.21-.13-.48-.22-.75-.22s-.55.06-.75.17c-.23.13-.36.36-.36.58,0,.14.06.27.15.37.13.13.41.25.71.33l1.01.29c.47.13.78.29,1.04.54.32.31.51.71.51,1.16,0,.49-.28,1-.71,1.29-.42.29-.94.37-1.52.37-.75,0-1.4-.21-1.85-.78-.26-.33-.4-.72-.49-1.09l.9-.25c.06.29.15.56.31.75.25.36.73.52,1.17.52.33,0,.74-.09.97-.26.21-.16.29-.38.29-.58,0-.18-.07-.36-.21-.48-.15-.14-.34-.24-.59-.31l-1.05-.31c-.41-.12-.79-.27-1.08-.52-.32-.28-.46-.69-.46-1.07,0-.59.38-1.11.88-1.34.4-.19.79-.23,1.17-.23.4,0,.82.08,1.19.29.48.26.84.71,1.05,1.28l-.9.25Z"/>
        <path class="cls-18" d="M679.34,55.04c-.14-.33-.3-.57-.59-.75-.21-.13-.48-.22-.75-.22s-.55.06-.75.17c-.23.13-.36.36-.36.58,0,.14.06.27.15.37.13.13.41.25.71.33l1.01.29c.47.13.78.29,1.04.54.32.31.51.71.51,1.16,0,.49-.28,1-.71,1.29-.42.29-.94.37-1.52.37-.75,0-1.4-.21-1.85-.78-.26-.33-.4-.72-.49-1.09l.9-.25c.06.29.15.56.31.75.25.36.73.52,1.17.52.33,0,.74-.09.97-.26.21-.16.29-.38.29-.58,0-.18-.07-.36-.21-.48-.15-.14-.34-.24-.59-.31l-1.05-.31c-.41-.12-.79-.27-1.08-.52-.32-.28-.46-.69-.46-1.07,0-.59.38-1.11.88-1.34.4-.19.79-.23,1.17-.23.4,0,.82.08,1.19.29.48.26.84.71,1.05,1.28l-.9.25Z"/>
        <path class="cls-18" d="M688.15,53.35l-1.93,3.36v2.35h-.9v-2.35l-1.93-3.36h1.04l1.35,2.34,1.35-2.34h1.04Z"/>
      </g>
    </g>
  </g>
  <rect class="cls-18" x="250" width="250" height="250" transform="translate(250 500) rotate(-90)"/>
  <text class="cls-19" transform="translate(279.1 108.31) scale(.98 1)"><tspan class="cls-56" x="0" y="0">D</tspan><tspan class="cls-53" x="8.03" y="0">i</tspan><tspan class="cls-54" x="11.22" y="0">r</tspan><tspan class="cls-25" x="15.79" y="0">e</tspan><tspan class="cls-79" x="22.8" y="0">c</tspan><tspan class="cls-39" x="29.64" y="0">t</tspan><tspan class="cls-21" x="34.46" y="0">o</tspan><tspan x="41.64" y="0">r</tspan></text>
  <g>
    <text class="cls-23" transform="translate(285.33 137.22) scale(.98 1)"><tspan x="0" y="0" xml:space="preserve">      </tspan><tspan class="cls-61" x="13.92" y="0">c</tspan><tspan x="20.41" y="0">o</tspan><tspan class="cls-55" x="27.38" y="0">n</tspan><tspan class="cls-65" x="34.28" y="0">t</tspan><tspan class="cls-59" x="39.03" y="0">a</tspan><tspan class="cls-36" x="45.54" y="0">t</tspan><tspan class="cls-45" x="50.06" y="0">o</tspan><tspan class="cls-57" x="56.68" y="0">.</tspan><tspan class="cls-26" x="59.7" y="0">a</tspan><tspan class="cls-68" x="66.25" y="0">g</tspan><tspan class="cls-63" x="73.2" y="0">e</tspan><tspan class="cls-28" x="80.02" y="0">n</tspan><tspan class="cls-58" x="87.04" y="0">c</tspan><tspan class="cls-51" x="93.45" y="0">i</tspan><tspan class="cls-37" x="96.27" y="0">a</tspan><tspan class="cls-48" x="102.55" y="0">@</tspan><tspan class="cls-64" x="112.75" y="0">b</tspan><tspan class="cls-20" x="119.69" y="0">a</tspan><tspan class="cls-27" x="126.23" y="0">m</tspan><tspan class="cls-64" x="136.27" y="0">h</tspan><tspan class="cls-62" x="143.27" y="0">u</tspan><tspan class="cls-49" x="150.25" y="0">b</tspan><tspan class="cls-34" x="156.88" y="0">.</tspan><tspan class="cls-61" x="159.69" y="0">c</tspan><tspan x="166.18" y="0">om</tspan><tspan x="0" y="32.08" xml:space="preserve">     </tspan><tspan class="cls-47" x="11.6" y="32.08">+</tspan><tspan class="cls-42" x="17.89" y="32.08">5</tspan><tspan x="24.4" y="32.08">5 </tspan><tspan class="cls-31" x="33.45" y="32.08">1</tspan><tspan x="37.5" y="32.08">1 </tspan><tspan class="cls-43" x="44.53" y="32.08">9</tspan><tspan class="cls-50" x="51.55" y="32.08">66</tspan><tspan class="cls-44" x="65.22" y="32.08">0</tspan><tspan class="cls-41" x="72.32" y="32.08">0</tspan><tspan class="cls-40" x="79.38" y="32.08">-</tspan><tspan class="cls-33" x="84.04" y="32.08">6</tspan><tspan class="cls-32" x="90.96" y="32.08">5</tspan><tspan class="cls-46" x="97.44" y="32.08">8</tspan><tspan x="103.92" y="32.08">2</tspan></text>
    <g>
      <path class="cls-4" d="M281.65,130.1h10.12c.7,0,1.26.57,1.26,1.26v7.59c0,.7-.57,1.26-1.26,1.26h-10.12c-.7,0-1.26-.57-1.26-1.26v-7.59c0-.7.57-1.26,1.26-1.26Z"/>
      <rect class="cls-2" x="280.39" y="130.1" width="12.64" height="10.12" rx="1.26" ry="1.26"/>
      <path class="cls-4" d="M293.03,131.36l-6.32,4.43-6.32-4.43"/>
      <polyline class="cls-2" points="293.03 131.36 286.71 135.79 280.39 131.36"/>
    </g>
    <g>
      <path class="cls-4" d="M291.25,170.06v-11.53c0-.58-.51-1.05-1.13-1.05h-6.81c-.63,0-1.13.47-1.13,1.05v11.53c0,.58.51,1.05,1.13,1.05h6.81c.63,0,1.13-.47,1.13-1.05Z"/>
      <path class="cls-2" d="M291.25,170.06v-11.53c0-.58-.51-1.05-1.13-1.05h-6.81c-.63,0-1.13.47-1.13,1.05v11.53c0,.58.51,1.05,1.13,1.05h6.81c.63,0,1.13-.47,1.13-1.05Z"/>
      <path class="cls-4" d="M286.71,160.63c.47,0,.85-.35.85-.79s-.38-.79-.85-.79-.85.35-.85.79.38.79.85.79Z"/>
      <ellipse class="cls-4" cx="286.71" cy="159.84" rx=".85" ry=".79"/>
    </g>
  </g>
  <g>
    <g>
      <path class="cls-6" d="M293.9,212.35c3.45,0,6.24-2.79,6.24-6.24s-2.79-6.24-6.24-6.24-6.24,2.79-6.24,6.24,2.79,6.24,6.24,6.24Z"/>
      <path class="cls-3" d="M293.9,212.35c3.45,0,6.24-2.79,6.24-6.24s-2.79-6.24-6.24-6.24-6.24,2.79-6.24,6.24,2.79,6.24,6.24,6.24Z"/>
      <path class="cls-4" d="M287.66,206.1h12.49"/>
      <path class="cls-9" d="M287.66,206.1h12.49"/>
      <path class="cls-6" d="M293.9,212.18c1.44,0,2.6-2.72,2.6-6.07s-1.16-6.07-2.6-6.07-2.6,2.72-2.6,6.07,1.16,6.07,2.6,6.07Z"/>
      <path class="cls-3" d="M293.9,212.18c1.44,0,2.6-2.72,2.6-6.07s-1.16-6.07-2.6-6.07-2.6,2.72-2.6,6.07,1.16,6.07,2.6,6.07Z"/>
    </g>
    <path class="cls-6" d="M314.61,192.58h27.04v27.04h-27.04v-27.04Z"/>
    <g>
      <path class="cls-6" d="M362.41,208.37c1.38,0,2.5-1.12,2.5-2.5s-1.12-2.5-2.5-2.5-2.5,1.12-2.5,2.5,1.12,2.5,2.5,2.5Z"/>
      <path class="cls-3" d="M362.41,208.37c1.38,0,2.5-1.12,2.5-2.5s-1.12-2.5-2.5-2.5-2.5,1.12-2.5,2.5,1.12,2.5,2.5,2.5Z"/>
      <path class="cls-4" d="M365.16,200.11h-5.51c-1.66,0-3,1.35-3,3v5.51c0,1.66,1.35,3,3,3h5.51c1.66,0,3-1.35,3-3v-5.51c0-1.66-1.35-3-3-3Z"/>
      <path class="cls-9" d="M365.16,200.11h-5.51c-1.66,0-3,1.35-3,3v5.51c0,1.66,1.35,3,3,3h5.51c1.66,0,3-1.35,3-3v-5.51c0-1.66-1.35-3-3-3Z"/>
      <path class="cls-6" d="M365.66,203.37c.41,0,.75-.34.75-.75s-.34-.75-.75-.75-.75.34-.75.75.34.75.75.75Z"/>
      <path class="cls-6" d="M365.66,203.37c.41,0,.75-.34.75-.75s-.34-.75-.75-.75-.75.34-.75.75.34.75.75.75Z"/>
    </g>
    <path class="cls-6" d="M348.84,192.58h27.04v27.04h-27.04v-27.04Z"/>
    <g>
      <path class="cls-4" d="M333.39,200.34h-10.52c-.28,0-.5.22-.5.5v10.52c0,.28.22.5.5.5h10.52c.28,0,.5-.22.5-.5v-10.52c0-.28-.22-.5-.5-.5Z"/>
      <path class="cls-9" d="M333.39,200.34h-10.52c-.28,0-.5.22-.5.5v10.52c0,.28.22.5.5.5h10.52c.28,0,.5-.22.5-.5v-10.52c0-.28-.22-.5-.5-.5Z"/>
      <path class="cls-4" d="M327.63,205.1v4.01"/>
      <path class="cls-9" d="M327.63,205.1v4.01"/>
      <path class="cls-4" d="M325.63,205.1v4.01"/>
      <path class="cls-9" d="M325.63,205.1v4.01"/>
      <path class="cls-4" d="M327.63,206.85c0-.46.18-.91.51-1.24.33-.33.77-.51,1.24-.51s.91.18,1.24.51c.33.33.51.77.51,1.24v2.25"/>
      <path class="cls-9" d="M327.63,206.85c0-.46.18-.91.51-1.24.33-.33.77-.51,1.24-.51s.91.18,1.24.51c.33.33.51.77.51,1.24v2.25"/>
      <path class="cls-6" d="M325.63,203.85c.41,0,.75-.34.75-.75s-.34-.75-.75-.75-.75.34-.75.75.34.75.75.75Z"/>
      <path class="cls-6" d="M325.63,203.85c.41,0,.75-.34.75-.75s-.34-.75-.75-.75-.75.34-.75.75.34.75.75.75Z"/>
    </g>
    <path class="cls-6" d="M280.38,192.58h27.04v27.04h-27.04v-27.04Z"/>
  </g>
  <g>
    <path class="cls-22" d="M335.28,57.48v-4.79h.73l1.66,3.39,1.66-3.39h.73v4.79h-.76v-3.08l-1.47,3.08h-.32l-1.47-3.08v3.08h-.77Z"/>
    <path class="cls-22" d="M347.23,57.48v-4.79h3.11v.75h-2.29v1.18h1.9v.75h-1.9v1.36h2.29v.75h-3.11s0-.01,0-.01Z"/>
    <path class="cls-22" d="M357.5,57.48v-4.79h1.76c.12,0,.23,0,.34.03.38.06.7.18.96.4.26.22.47.51.6.84.14.34.21.71.21,1.13s-.07.78-.21,1.13c-.14.34-.33.62-.6.84-.26.22-.59.36-.96.4-.11,0-.22.03-.34.03h-1.76ZM358.32,56.72h.98c.11,0,.19-.01.28-.03.22-.04.41-.14.55-.3.14-.16.25-.36.32-.58.07-.23.1-.47.1-.71s-.04-.51-.11-.73c-.07-.22-.18-.43-.32-.58s-.33-.26-.55-.3c-.08-.01-.16-.03-.27-.03h-.98v3.28-.03h.01,0Z"/>
    <path class="cls-22" d="M368.55,57.48v-4.79h.8v4.79h-.8Z"/>
    <path class="cls-22" d="M379.89,57.48h.82l-1.51-4.79h-1.18l-1.51,4.79h.82l.33-1.04h1.9l.33,1.04ZM377.9,55.69l.7-2.22.71,2.22h-1.42,0Z"/>
    <path class="cls-22" d="M342.93,38.56c.39-.23.72-.55,1-.91.44-.6.66-1.3.66-2.08,0-1.3-.42-2.3-1.28-2.99-.83-.67-2.04-1-3.6-1h-4.43v14.66h4.98c1.49,0,2.68-.38,3.52-1.13.86-.77,1.3-1.81,1.3-3.14s-.28-1.67-.81-2.36c-.36-.45-.81-.81-1.33-1.05h0ZM337.09,39.5h3.3c.91,0,1.61.23,2.11.67.5.44.74,1.03.74,1.81s-.25,1.46-.78,1.91c-.52.45-1.25.69-2.18.69h-3.21v-5.08h.02ZM342.05,37.23c-.47.39-1.17.6-2.07.63h-2.9v-4.63h2.62c1.05,0,1.83.19,2.33.58.49.36.72.92.72,1.72s-.23,1.31-.69,1.71h-.02ZM378.85,31.57h2.11v14.66h-1.82v-6.43l.06-4.58-4.62,11.01h-1.33l-4.6-10.97.06,4.51v6.46h-1.82v-14.66h2.1l4.92,11.84,4.93-11.84h0ZM430.81,39.61c-.36-.45-.81-.81-1.33-1.05.39-.23.72-.55.99-.91.44-.6.66-1.3.66-2.08,0-1.3-.42-2.32-1.28-2.99-.83-.67-2.04-1-3.6-1h-4.43v14.66h4.98c1.49,0,2.68-.38,3.52-1.13.86-.77,1.3-1.81,1.3-3.14s-.28-1.67-.81-2.36h.02,0ZM423.64,39.5h3.3c.91,0,1.61.23,2.11.67.5.44.74,1.03.74,1.81s-.25,1.46-.78,1.91c-.52.45-1.25.69-2.18.69h-3.21v-5.08h.02ZM428.61,37.23c-.47.39-1.17.6-2.07.63h-2.9v-4.63h2.61c1.05,0,1.83.19,2.33.58.49.36.72.92.72,1.72s-.23,1.31-.69,1.71h-.02ZM413.49,31.57h1.83v9.89c0,1-.23,1.88-.66,2.63-.44.75-1.06,1.33-1.86,1.74-.78.39-1.69.6-2.69.6-1.53,0-2.8-.44-3.74-1.28-.94-.88-1.44-2.06-1.47-3.58v-9.98h1.82v9.81c0,1.08.3,1.94.91,2.52.61.6,1.43.88,2.5.88s1.9-.3,2.49-.89c.61-.6.91-1.42.91-2.5v-9.81h-.03ZM354.97,31.57l-5.51,14.66h1.92l1.44-3.93h5.87l1.44,3.93h1.91l-5.51-14.66h-1.57ZM358.19,40.64h-4.67l2.33-6.37,2.33,6.37ZM396.58,31.57h1.83v14.66h-1.83v-6.71h-7.31v6.71h-1.82v-14.66h1.82v6.29h7.31v-6.29Z"/>
    <path class="cls-12" d="M308.56,28.65l-5.01,7.3,15.26,21.55h10.02l-20.27-28.85Z"/>
    <path class="cls-67" d="M288.64,44.96l3.69-5.43,12.98,8.78-3.69,5.32-12.98-8.67Z"/>
    <path class="cls-52" d="M306.12,47.05l1.74-2.51-5.24-7.29-3.49,5.06,6.98,4.73Z"/>
    <path class="cls-66" d="M294.61,50.73l-4.62,6.77h-10.02l7.81-11.33,6.83,4.56Z"/>
    <path class="cls-30" d="M308.8,46l5.42,7.69h-10.84l5.42-7.69Z"/>
  </g>
  <text class="cls-17" transform="translate(29.58 203.72) scale(.98 1)"><tspan class="cls-76" x="0" y="0">L</tspan><tspan class="cls-91" x="5.76" y="0">u</tspan><tspan class="cls-101" x="12.62" y="0">x</tspan><tspan class="cls-96" x="18.48" y="0">e</tspan><tspan class="cls-87" x="25.13" y="0">m</tspan><tspan class="cls-83" x="34.76" y="0">b</tspan><tspan class="cls-88" x="41.57" y="0">o</tspan><tspan class="cls-97" x="48.36" y="0">u</tspan><tspan class="cls-75" x="55.16" y="0">r</tspan><tspan class="cls-84" x="59.41" y="0">g - </tspan><tspan class="cls-77" x="75.9" y="0">M</tspan><tspan class="cls-72" x="85.21" y="0">i</tspan><tspan class="cls-89" x="88.17" y="0">a</tspan><tspan class="cls-86" x="94.57" y="0">mi - </tspan><tspan class="cls-90" x="116.88" y="0">S</tspan><tspan class="cls-83" x="123.98" y="0">ã</tspan><tspan class="cls-86" x="130.39" y="0">o </tspan><tspan class="cls-69" x="139.6" y="0">P</tspan><tspan class="cls-87" x="146.43" y="0">a</tspan><tspan class="cls-70" x="152.81" y="0">u</tspan><tspan class="cls-94" x="159.56" y="0">l</tspan><tspan class="cls-86" x="162.54" y="0">o</tspan><tspan class="cls-92" x="0" y="16.28">M</tspan><tspan class="cls-82" x="9.37" y="16.28">a</tspan><tspan class="cls-97" x="15.77" y="16.28">d</tspan><tspan class="cls-71" x="22.53" y="16.28">r</tspan><tspan class="cls-93" x="26.79" y="16.28">i</tspan><tspan class="cls-84" x="29.76" y="16.28">d</tspan></text>
</svg>