<?xml version="1.0" encoding="UTF-8"?>
<svg id="Camada_1" data-name="Camada 1" xmlns="http://www.w3.org/2000/svg" viewBox="0 0 750 250">
  <defs>
    <style>
      .cls-1, .cls-2, .cls-3 {
        font-family: Arial-BoldMT, Arial;
        font-weight: 700;
      }

      .cls-1, .cls-4, .cls-5, .cls-3 {
        font-size: 11.6px;
      }

      .cls-1, .cls-5 {
        fill: #fff;
      }

      .cls-6, .cls-7, .cls-8, .cls-9, .cls-10, .cls-11, .cls-12, .cls-13, .cls-14, .cls-15, .cls-16 {
        fill: none;
        stroke-width: .75px;
      }

      .cls-6, .cls-7, .cls-9, .cls-12, .cls-13, .cls-14 {
        stroke-linecap: round;
        stroke-linejoin: round;
      }

      .cls-6, .cls-15 {
        stroke: rgba(27, 27, 27, .2);
      }

      .cls-17 {
        fill: #eaeaea;
      }

      .cls-18 {
        fill: #d2d2d2;
      }

      .cls-2 {
        font-size: 19.34px;
      }

      .cls-2, .cls-19, .cls-4, .cls-3, .cls-20 {
        fill: #1b1b1b;
      }

      .cls-7, .cls-9, .cls-11 {
        stroke: #fff;
      }

      .cls-7, .cls-12 {
        opacity: .2;
      }

      .cls-21 {
        fill: #103b33;
      }

      .cls-8, .cls-10, .cls-11, .cls-15, .cls-16 {
        stroke-miterlimit: 10;
      }

      .cls-8, .cls-14 {
        stroke: rgba(255, 255, 255, .2);
      }

      .cls-10 {
        stroke: #1b1b1b;
      }

      .cls-22 {
        letter-spacing: 0em;
      }

      .cls-23 {
        letter-spacing: 0em;
      }

      .cls-24 {
        letter-spacing: 0em;
      }

      .cls-12, .cls-13, .cls-16 {
        stroke: #1b1b1b;
      }

      .cls-25 {
        letter-spacing: 0em;
      }

      .cls-26 {
        fill: #ada690;
      }

      .cls-19 {
        font-size: 10.71px;
      }

      .cls-19, .cls-4, .cls-5 {
        font-family: ArialMT, Arial;
      }

      .cls-27 {
        letter-spacing: -.1em;
      }

      .cls-28 {
        letter-spacing: -.02em;
      }

      .cls-29 {
        letter-spacing: -.02em;
      }

      .cls-30 {
        letter-spacing: -.02em;
      }

      .cls-31 {
        letter-spacing: -.02em;
      }

      .cls-32 {
        letter-spacing: 0em;
      }

      .cls-33 {
        letter-spacing: 0em;
      }

      .cls-34 {
        letter-spacing: 0em;
      }

      .cls-35 {
        letter-spacing: 0em;
      }

      .cls-36 {
        letter-spacing: 0em;
      }

      .cls-37 {
        letter-spacing: 0em;
      }

      .cls-38 {
        letter-spacing: 0em;
      }

      .cls-39 {
        letter-spacing: 0em;
      }

      .cls-40 {
        letter-spacing: -.01em;
      }

      .cls-41 {
        letter-spacing: 0em;
      }

      .cls-42 {
        letter-spacing: -.01em;
      }

      .cls-43 {
        letter-spacing: 0em;
      }

      .cls-44 {
        letter-spacing: 0em;
      }

      .cls-45 {
        letter-spacing: 0em;
      }

      .cls-46 {
        letter-spacing: 0em;
      }

      .cls-47 {
        letter-spacing: .03em;
      }

      .cls-48 {
        letter-spacing: .02em;
      }

      .cls-49 {
        letter-spacing: .02em;
      }

      .cls-50 {
        letter-spacing: .03em;
      }

      .cls-51 {
        letter-spacing: .03em;
      }

      .cls-52 {
        letter-spacing: .03em;
      }

      .cls-53 {
        letter-spacing: .03em;
      }

      .cls-54 {
        letter-spacing: .02em;
      }

      .cls-55 {
        letter-spacing: .02em;
      }

      .cls-56 {
        letter-spacing: .02em;
      }

      .cls-57 {
        letter-spacing: .02em;
      }

      .cls-58 {
        letter-spacing: .02em;
      }

      .cls-59 {
        letter-spacing: .02em;
      }

      .cls-60 {
        letter-spacing: .02em;
      }

      .cls-61 {
        letter-spacing: .04em;
      }

      .cls-62 {
        letter-spacing: .04em;
      }

      .cls-63 {
        letter-spacing: .04em;
      }

      .cls-64 {
        letter-spacing: .03em;
      }

      .cls-65 {
        letter-spacing: .03em;
      }

      .cls-66 {
        letter-spacing: .03em;
      }

      .cls-67 {
        letter-spacing: .03em;
      }

      .cls-68 {
        letter-spacing: .03em;
      }

      .cls-69 {
        letter-spacing: .03em;
      }

      .cls-70 {
        letter-spacing: .03em;
      }

      .cls-71 {
        letter-spacing: .03em;
      }

      .cls-72 {
        letter-spacing: .03em;
      }

      .cls-73 {
        letter-spacing: .03em;
      }

      .cls-74 {
        letter-spacing: .03em;
      }

      .cls-75 {
        letter-spacing: .04em;
      }

      .cls-76 {
        letter-spacing: .04em;
      }

      .cls-77 {
        letter-spacing: .04em;
      }

      .cls-78 {
        letter-spacing: .03em;
      }

      .cls-79 {
        letter-spacing: .03em;
      }

      .cls-80 {
        letter-spacing: .03em;
      }

      .cls-81 {
        letter-spacing: .03em;
      }

      .cls-82 {
        letter-spacing: .03em;
      }

      .cls-83 {
        letter-spacing: .03em;
      }

      .cls-84 {
        letter-spacing: .03em;
      }

      .cls-85 {
        letter-spacing: .03em;
      }

      .cls-86 {
        letter-spacing: 0em;
      }

      .cls-87 {
        letter-spacing: 0em;
      }

      .cls-88 {
        letter-spacing: 0em;
      }

      .cls-89 {
        letter-spacing: .01em;
      }

      .cls-90 {
        letter-spacing: .01em;
      }

      .cls-91 {
        letter-spacing: .01em;
      }

      .cls-92 {
        letter-spacing: .01em;
      }

      .cls-93 {
        letter-spacing: 0em;
      }

      .cls-94 {
        letter-spacing: 0em;
      }

      .cls-95 {
        letter-spacing: 0em;
      }
    </style>
  </defs>
  <rect class="cls-17" width="250" height="250"/>
  <text class="cls-2" transform="translate(28.67 44.17) scale(.98 1)"><tspan class="cls-88" x="0" y="0">F</tspan><tspan class="cls-53" x="11.89" y="0">e</tspan><tspan class="cls-49" x="23.16" y="0">l</tspan><tspan class="cls-78" x="29" y="0">i</tspan><tspan class="cls-62" x="34.87" y="0">p</tspan><tspan class="cls-65" x="47.38" y="0">e </tspan><tspan class="cls-70" x="64.67" y="0">M</tspan><tspan class="cls-82" x="81.44" y="0">A</tspan><tspan class="cls-57" x="96.01" y="0">R</tspan><tspan class="cls-47" x="110.4" y="0">T</tspan><tspan class="cls-73" x="122.7" y="0">I</tspan><tspan class="cls-58" x="128.72" y="0">N</tspan><tspan class="cls-67" x="143.13" y="0">S</tspan></text>
  <line class="cls-10" x1="30" y1="77.67" x2="220" y2="77.67"/>
  <rect class="cls-26" x="500" y="0" width="250" height="250" transform="translate(500 750) rotate(-90)"/>
  <text class="cls-3" transform="translate(529.12 108.29) scale(.98 1)"><tspan class="cls-87" x="0" y="0">D</tspan><tspan class="cls-22" x="8.43" y="0">i</tspan><tspan class="cls-24" x="11.67" y="0">r</tspan><tspan class="cls-23" x="16.21" y="0">e</tspan><tspan class="cls-90" x="22.69" y="0">c</tspan><tspan class="cls-25" x="29.29" y="0">t</tspan><tspan class="cls-87" x="33.16" y="0">o</tspan><tspan x="40.29" y="0">r</tspan></text>
  <g>
    <g>
      <path class="cls-16" d="M543.91,212.33c3.45,0,6.24-2.79,6.24-6.24s-2.79-6.24-6.24-6.24-6.24,2.79-6.24,6.24,2.79,6.24,6.24,6.24Z"/>
      <path class="cls-15" d="M543.91,212.33c3.45,0,6.24-2.79,6.24-6.24s-2.79-6.24-6.24-6.24-6.24,2.79-6.24,6.24,2.79,6.24,6.24,6.24Z"/>
      <path class="cls-13" d="M537.67,206.09h12.49"/>
      <path class="cls-6" d="M537.67,206.09h12.49"/>
      <path class="cls-16" d="M543.91,212.16c1.44,0,2.6-2.72,2.6-6.07s-1.16-6.07-2.6-6.07-2.6,2.72-2.6,6.07,1.16,6.07,2.6,6.07Z"/>
      <path class="cls-15" d="M543.91,212.16c1.44,0,2.6-2.72,2.6-6.07s-1.16-6.07-2.6-6.07-2.6,2.72-2.6,6.07,1.16,6.07,2.6,6.07Z"/>
    </g>
    <path class="cls-16" d="M564.62,192.57h27.04v27.04h-27.04v-27.04Z"/>
    <g>
      <path class="cls-16" d="M612.42,208.36c1.38,0,2.5-1.12,2.5-2.5s-1.12-2.5-2.5-2.5-2.5,1.12-2.5,2.5,1.12,2.5,2.5,2.5Z"/>
      <path class="cls-15" d="M612.42,208.36c1.38,0,2.5-1.12,2.5-2.5s-1.12-2.5-2.5-2.5-2.5,1.12-2.5,2.5,1.12,2.5,2.5,2.5Z"/>
      <path class="cls-13" d="M615.17,200.1h-5.51c-1.66,0-3,1.35-3,3v5.51c0,1.66,1.35,3,3,3h5.51c1.66,0,3-1.35,3-3v-5.51c0-1.66-1.35-3-3-3Z"/>
      <path class="cls-6" d="M615.17,200.1h-5.51c-1.66,0-3,1.35-3,3v5.51c0,1.66,1.35,3,3,3h5.51c1.66,0,3-1.35,3-3v-5.51c0-1.66-1.35-3-3-3Z"/>
      <path class="cls-16" d="M615.67,203.35c.41,0,.75-.34.75-.75s-.34-.75-.75-.75-.75.34-.75.75.34.75.75.75Z"/>
      <path class="cls-16" d="M615.67,203.35c.41,0,.75-.34.75-.75s-.34-.75-.75-.75-.75.34-.75.75.34.75.75.75Z"/>
    </g>
    <path class="cls-16" d="M598.85,192.57h27.04v27.04h-27.04v-27.04Z"/>
    <g>
      <path class="cls-13" d="M583.4,200.33h-10.52c-.28,0-.5.22-.5.5v10.52c0,.28.22.5.5.5h10.52c.28,0,.5-.22.5-.5v-10.52c0-.28-.22-.5-.5-.5Z"/>
      <path class="cls-6" d="M583.4,200.33h-10.52c-.28,0-.5.22-.5.5v10.52c0,.28.22.5.5.5h10.52c.28,0,.5-.22.5-.5v-10.52c0-.28-.22-.5-.5-.5Z"/>
      <path class="cls-13" d="M577.64,205.09v4.01"/>
      <path class="cls-6" d="M577.64,205.09v4.01"/>
      <path class="cls-13" d="M575.64,205.09v4.01"/>
      <path class="cls-6" d="M575.64,205.09v4.01"/>
      <path class="cls-13" d="M577.64,206.84c0-.46.18-.91.51-1.24.33-.33.77-.51,1.24-.51s.91.18,1.24.51c.33.33.51.77.51,1.24v2.25"/>
      <path class="cls-6" d="M577.64,206.84c0-.46.18-.91.51-1.24.33-.33.77-.51,1.24-.51s.91.18,1.24.51c.33.33.51.77.51,1.24v2.25"/>
      <path class="cls-16" d="M575.64,203.84c.41,0,.75-.34.75-.75s-.34-.75-.75-.75-.75.34-.75.75.34.75.75.75Z"/>
      <path class="cls-16" d="M575.64,203.84c.41,0,.75-.34.75-.75s-.34-.75-.75-.75-.75.34-.75.75.34.75.75.75Z"/>
    </g>
    <path class="cls-16" d="M530.39,192.57h27.04v27.04h-27.04v-27.04Z"/>
  </g>
  <g>
    <path class="cls-20" d="M546.14,30.03h12.91v12.91h-12.91v-12.91ZM546.14,46.17h12.91v12.91h-12.91v-12.91ZM530,30.03h6.46c3.56,0,6.46,2.89,6.46,6.46s-2.89,6.46-6.46,6.46h-6.46v-12.91ZM530,46.17h6.46c3.56,0,6.46,2.89,6.46,6.46s-2.89,6.46-6.46,6.46h-6.46v-12.91Z"/>
    <path class="cls-20" d="M578.3,38.77c.49-.3.91-.68,1.24-1.14.54-.74.82-1.62.82-2.61,0-1.63-.54-2.89-1.6-3.74-1.03-.83-2.55-1.26-4.5-1.26h-5.55v18.35h6.23c1.86,0,3.34-.47,4.41-1.4,1.08-.95,1.63-2.28,1.63-3.94,0-1.11-.34-2.1-1.02-2.95-.45-.58-1.01-1.02-1.67-1.32ZM571,39.94h4.13c1.13,0,2.03.29,2.65.85.62.55.93,1.29.93,2.26,0,1.04-.32,1.82-.97,2.39-.65.57-1.57.86-2.72.86h-4.01v-6.37ZM577.2,37.12c-.59.49-1.47.75-2.59.77h-3.61v-5.79h3.27c1.31,0,2.29.24,2.92.73.6.45.89,1.16.89,2.16s-.28,1.65-.87,2.14ZM623.81,30.03h2.63v18.35h-2.28v-8.04l.09-5.75-5.78,13.79h-1.67l-5.75-13.73.09,5.63v8.1h-2.28v-18.35h2.62l6.15,14.83,6.18-14.83ZM689.44,40.08c-.45-.58-1.01-1.02-1.67-1.32.49-.3.91-.68,1.24-1.14.54-.74.82-1.62.82-2.61,0-1.63-.54-2.89-1.6-3.74-1.03-.83-2.55-1.26-4.5-1.26h-5.55v18.35h6.23c1.86,0,3.34-.47,4.4-1.4,1.08-.95,1.63-2.28,1.63-3.94,0-1.11-.34-2.1-1.02-2.95ZM680.47,39.94h4.13c1.13,0,2.03.29,2.65.85.62.55.93,1.29.93,2.26,0,1.04-.32,1.82-.97,2.39-.65.57-1.57.86-2.72.86h-4.01v-6.37ZM686.68,37.12c-.59.49-1.47.75-2.59.77h-3.61v-5.79h3.27c1.31,0,2.29.24,2.92.73.6.45.89,1.16.89,2.16s-.28,1.65-.87,2.14ZM667.71,30.03h2.29v12.38c0,1.25-.29,2.36-.83,3.29-.55.94-1.33,1.67-2.33,2.18-.98.49-2.12.74-3.38.74-1.93,0-3.5-.54-4.69-1.61-1.18-1.09-1.8-2.59-1.84-4.48v-12.5s2.27,0,2.27,0v12.27c0,1.36.38,2.42,1.13,3.16.76.74,1.79,1.1,3.13,1.1s2.37-.37,3.11-1.11c.77-.75,1.14-1.77,1.14-3.14v-12.28ZM593.51,30.03l-6.89,18.35h2.41l1.79-4.92h7.34l1.81,4.92h2.4l-6.89-18.35h-1.96ZM597.4,41.39h-5.83l2.92-7.97,2.92,7.97ZM646.37,30.03h2.29v18.35h-2.29v-8.41h-9.14v8.41h-2.28v-18.35h2.28v7.88h9.14v-7.88Z"/>
    <g>
      <path class="cls-20" d="M573.31,57.38c0,.36-.13.72-.35,1.02-.23.29-.54.48-.87.59-.21.06-.43.09-.64.09h-2.27v-5.71h2.15c.19,0,.41.02.58.07.32.09.6.28.79.55.21.25.32.59.34.94.02.33-.11.67-.32.94-.03.05-.07.1-.1.13.13.1.26.23.36.37.22.29.33.65.33,1.02ZM570.08,54.19v1.47h1.42c.16-.03.36-.13.48-.29.1-.13.16-.29.15-.45,0-.18-.07-.35-.19-.48-.13-.15-.32-.25-.52-.25h-1.34ZM572.41,57.38c0-.21-.08-.43-.21-.59-.17-.21-.41-.29-.63-.29h-1.47v1.72h1.36c.29,0,.52-.04.71-.25.17-.15.25-.36.26-.59Z"/>
      <path class="cls-20" d="M581.77,56.96c0,.52-.17,1.02-.5,1.42-.42.54-1.09.81-1.78.81s-1.36-.28-1.78-.81c-.32-.39-.51-.93-.51-1.42v-3.59h.9s0,3.48,0,3.48c0,.37.06.67.29.98.26.33.68.52,1.1.52s.83-.19,1.09-.53c.23-.3.29-.59.29-.97v-3.49h.9v3.6Z"/>
      <path class="cls-20" d="M589.19,55.04c-.14-.33-.3-.57-.59-.75-.21-.13-.48-.22-.75-.22s-.55.06-.75.17c-.23.13-.36.36-.36.58,0,.14.06.27.15.37.13.13.41.25.71.33l1.01.29c.47.13.78.29,1.04.54.32.31.51.71.51,1.16,0,.49-.28,1-.71,1.29-.42.29-.94.37-1.52.37-.75,0-1.4-.21-1.85-.78-.26-.33-.4-.72-.49-1.09l.9-.25c.06.29.15.56.31.75.25.36.73.52,1.17.52.33,0,.74-.09.97-.26.21-.16.29-.38.29-.58,0-.18-.07-.36-.21-.48-.15-.14-.34-.24-.59-.31l-1.05-.31c-.41-.12-.79-.27-1.08-.52-.32-.28-.46-.69-.46-1.07,0-.59.38-1.11.88-1.34.4-.19.79-.23,1.17-.23.4,0,.82.08,1.19.29.48.26.84.71,1.05,1.28l-.9.25Z"/>
      <path class="cls-20" d="M594.91,53.35v5.71h-.9v-5.71h.9Z"/>
      <path class="cls-20" d="M602.69,57.42v-4.07h.9v5.71h-.79l-2.77-4.07v4.07h-.91v-5.71h.79l2.78,4.07Z"/>
      <path class="cls-20" d="M608.73,54.24v1.52h2.27v.89h-2.27v1.52h2.75v.9h-3.65v-5.71h3.65v.89h-2.75Z"/>
      <path class="cls-20" d="M618.67,55.04c-.14-.33-.3-.57-.59-.75-.21-.13-.48-.22-.75-.22s-.55.06-.75.17c-.23.13-.36.36-.36.58,0,.14.06.27.15.37.13.13.41.25.71.33l1.01.29c.47.13.78.29,1.04.54.32.31.51.71.51,1.16,0,.49-.28,1-.71,1.29-.42.29-.94.37-1.52.37-.75,0-1.4-.21-1.85-.78-.26-.33-.4-.72-.49-1.09l.9-.25c.06.29.15.56.31.75.25.36.73.52,1.17.52.33,0,.74-.09.97-.26.21-.16.29-.38.29-.58,0-.18-.07-.36-.21-.48-.15-.14-.34-.24-.59-.31l-1.05-.31c-.41-.12-.79-.27-1.08-.52-.32-.28-.46-.69-.46-1.07,0-.59.38-1.11.88-1.34.4-.19.79-.23,1.17-.23.4,0,.82.08,1.19.29.48.26.84.71,1.05,1.28l-.9.25Z"/>
      <path class="cls-20" d="M626.83,55.04c-.14-.33-.3-.57-.59-.75-.21-.13-.48-.22-.75-.22s-.55.06-.75.17c-.23.13-.36.36-.36.58,0,.14.06.27.15.37.13.13.41.25.71.33l1.01.29c.47.13.78.29,1.04.54.32.31.51.71.51,1.16,0,.49-.28,1-.71,1.29-.42.29-.94.37-1.52.37-.75,0-1.4-.21-1.85-.78-.26-.33-.4-.72-.49-1.09l.9-.25c.06.29.15.56.31.75.25.36.73.52,1.17.52.33,0,.74-.09.97-.26.21-.16.29-.38.29-.58,0-.18-.07-.36-.21-.48-.15-.14-.34-.24-.59-.31l-1.05-.31c-.41-.12-.79-.27-1.08-.52-.32-.28-.46-.69-.46-1.07,0-.59.38-1.11.88-1.34.4-.19.79-.23,1.17-.23.4,0,.82.08,1.19.29.48.26.84.71,1.05,1.28l-.9.25Z"/>
      <path class="cls-20" d="M635.17,54.24v1.52h2.27v.89h-2.27v1.52h2.75v.9h-3.65v-5.71h3.65v.89h-2.75Z"/>
      <path class="cls-20" d="M647.68,59.07h-.9v-3.78l-1.79,3.78h-.38l-1.8-3.78v3.78h-.9v-5.71h.9l1.99,4.17,1.98-4.17h.9v5.71Z"/>
      <path class="cls-20" d="M656.05,57.38c0,.36-.13.72-.35,1.02-.23.29-.54.48-.87.59-.21.06-.43.09-.64.09h-2.27v-5.71h2.15c.19,0,.41.02.58.07.32.09.6.28.79.55.21.25.32.59.34.94.02.33-.11.67-.32.94-.03.05-.07.1-.1.13.13.1.26.23.36.37.22.29.33.65.33,1.02ZM652.82,54.19v1.47h1.42c.16-.03.36-.13.48-.29.1-.13.16-.29.15-.45,0-.18-.07-.35-.19-.48-.13-.15-.32-.25-.52-.25h-1.34ZM655.15,57.38c0-.21-.08-.43-.21-.59-.17-.21-.41-.29-.63-.29h-1.47v1.72h1.36c.29,0,.52-.04.71-.25.17-.15.25-.36.26-.59Z"/>
      <path class="cls-20" d="M663.07,58.09h-2.48l-.31.98h-.92l1.83-5.71h1.29l1.83,5.71h-.93l-.32-.98ZM662.8,57.25l-.97-3.01-.97,3.01h1.94Z"/>
      <path class="cls-20" d="M671.17,55.04c-.14-.33-.3-.57-.59-.75-.21-.13-.48-.22-.75-.22s-.55.06-.75.17c-.23.13-.36.36-.36.58,0,.14.06.27.15.37.13.13.41.25.71.33l1.01.29c.47.13.78.29,1.04.54.32.31.51.71.51,1.16,0,.49-.28,1-.71,1.29-.42.29-.94.37-1.52.37-.75,0-1.4-.21-1.85-.78-.26-.33-.4-.72-.49-1.09l.9-.25c.06.29.15.56.31.75.25.36.73.52,1.17.52.33,0,.74-.09.97-.26.21-.16.29-.38.29-.58,0-.18-.07-.36-.21-.48-.15-.14-.34-.24-.59-.31l-1.05-.31c-.41-.12-.79-.27-1.08-.52-.32-.28-.46-.69-.46-1.07,0-.59.38-1.11.88-1.34.4-.19.79-.23,1.17-.23.4,0,.82.08,1.19.29.48.26.84.71,1.05,1.28l-.9.25Z"/>
      <path class="cls-20" d="M679.34,55.04c-.14-.33-.3-.57-.59-.75-.21-.13-.48-.22-.75-.22s-.55.06-.75.17c-.23.13-.36.36-.36.58,0,.14.06.27.15.37.13.13.41.25.71.33l1.01.29c.47.13.78.29,1.04.54.32.31.51.71.51,1.16,0,.49-.28,1-.71,1.29-.42.29-.94.37-1.52.37-.75,0-1.4-.21-1.85-.78-.26-.33-.4-.72-.49-1.09l.9-.25c.06.29.15.56.31.75.25.36.73.52,1.17.52.33,0,.74-.09.97-.26.21-.16.29-.38.29-.58,0-.18-.07-.36-.21-.48-.15-.14-.34-.24-.59-.31l-1.05-.31c-.41-.12-.79-.27-1.08-.52-.32-.28-.46-.69-.46-1.07,0-.59.38-1.11.88-1.34.4-.19.79-.23,1.17-.23.4,0,.82.08,1.19.29.48.26.84.71,1.05,1.28l-.9.25Z"/>
      <path class="cls-20" d="M688.15,53.35l-1.93,3.36v2.35h-.9v-2.35l-1.93-3.36h1.04l1.35,2.34,1.35-2.34h1.04Z"/>
    </g>
  </g>
  <rect class="cls-21" x="250" y="0" width="250" height="250" transform="translate(250 500) rotate(-90)"/>
  <text class="cls-1" transform="translate(279.1 108.29) scale(.98 1)"><tspan class="cls-87" x="0" y="0">D</tspan><tspan class="cls-22" x="8.43" y="0">i</tspan><tspan class="cls-24" x="11.67" y="0">r</tspan><tspan class="cls-23" x="16.21" y="0">e</tspan><tspan class="cls-90" x="22.69" y="0">c</tspan><tspan class="cls-25" x="29.29" y="0">t</tspan><tspan class="cls-87" x="33.16" y="0">o</tspan><tspan x="40.29" y="0">r</tspan></text>
  <g>
    <text class="cls-5" transform="translate(281.33 137.44) scale(.98 1)"><tspan x="0" y="0" xml:space="preserve">      </tspan><tspan class="cls-92" x="19.34" y="0">c</tspan><tspan class="cls-46" x="25.29" y="0">o</tspan><tspan class="cls-40" x="31.74" y="0">n</tspan><tspan class="cls-95" x="38.04" y="0">t</tspan><tspan class="cls-42" x="41.35" y="0">a</tspan><tspan class="cls-41" x="47.68" y="0">t</tspan><tspan class="cls-29" x="50.8" y="0">o</tspan><tspan class="cls-41" x="57.01" y="0">.</tspan><tspan class="cls-43" x="60.13" y="0">h</tspan><tspan class="cls-46" x="66.56" y="0">o</tspan><tspan class="cls-43" x="73.01" y="0">m</tspan><tspan x="82.65" y="0">e</tspan><tspan class="cls-45" x="89.1" y="0">@</tspan><tspan class="cls-35" x="100.85" y="0">b</tspan><tspan class="cls-36" x="107.23" y="0">a</tspan><tspan class="cls-39" x="113.63" y="0">m</tspan><tspan class="cls-34" x="123.25" y="0">hu</tspan><tspan class="cls-28" x="135.99" y="0">b</tspan><tspan class="cls-31" x="142.18" y="0">.</tspan><tspan class="cls-92" x="145.2" y="0">c</tspan><tspan class="cls-46" x="151.15" y="0">o</tspan><tspan x="157.6" y="0">m</tspan><tspan x="0" y="30.08" xml:space="preserve">     </tspan><tspan class="cls-32" x="16.11" y="30.08">+</tspan><tspan class="cls-94" x="22.81" y="30.08">5</tspan><tspan x="29.35" y="30.08">5 </tspan><tspan class="cls-27" x="39.02" y="30.08">1</tspan><tspan x="44.37" y="30.08">1 </tspan><tspan class="cls-55" x="54.04" y="30.08">9</tspan><tspan class="cls-60" x="60.74" y="30.08">6</tspan><tspan class="cls-91" x="67.37" y="30.08">6</tspan><tspan class="cls-59" x="73.98" y="30.08">0</tspan><tspan class="cls-75" x="80.66" y="30.08">0</tspan><tspan class="cls-61" x="87.57" y="30.08">-</tspan><tspan class="cls-86" x="91.95" y="30.08">6</tspan><tspan class="cls-93" x="98.47" y="30.08">5</tspan><tspan class="cls-37" x="105.03" y="30.08">8</tspan><tspan x="111.43" y="30.08">2</tspan></text>
    <g>
      <path class="cls-9" d="M281.65,129.1h10.12c.7,0,1.26.57,1.26,1.26v7.59c0,.7-.57,1.26-1.26,1.26h-10.12c-.7,0-1.26-.57-1.26-1.26v-7.59c0-.7.57-1.26,1.26-1.26Z"/>
      <rect class="cls-7" x="280.39" y="129.1" width="12.64" height="10.12" rx="1.26" ry="1.26"/>
      <path class="cls-9" d="M293.03,130.36l-6.32,4.43-6.32-4.43"/>
      <polyline class="cls-7" points="293.03 130.36 286.71 134.79 280.39 130.36"/>
    </g>
    <g>
      <path class="cls-9" d="M291.25,169.06v-11.53c0-.58-.51-1.05-1.13-1.05h-6.81c-.63,0-1.13.47-1.13,1.05v11.53c0,.58.51,1.05,1.13,1.05h6.81c.63,0,1.13-.47,1.13-1.05Z"/>
      <path class="cls-7" d="M291.25,169.06v-11.53c0-.58-.51-1.05-1.13-1.05h-6.81c-.63,0-1.13.47-1.13,1.05v11.53c0,.58.51,1.05,1.13,1.05h6.81c.63,0,1.13-.47,1.13-1.05Z"/>
      <path class="cls-9" d="M286.71,159.63c.47,0,.85-.35.85-.79s-.38-.79-.85-.79-.85.35-.85.79.38.79.85.79Z"/>
      <ellipse class="cls-9" cx="286.71" cy="158.84" rx=".85" ry=".79"/>
    </g>
  </g>
  <g>
    <text class="cls-4" transform="translate(531.32 137.44) scale(.98 1)"><tspan x="0" y="0" xml:space="preserve">      </tspan><tspan class="cls-92" x="19.34" y="0">c</tspan><tspan class="cls-46" x="25.29" y="0">o</tspan><tspan class="cls-40" x="31.74" y="0">n</tspan><tspan class="cls-95" x="38.04" y="0">t</tspan><tspan class="cls-42" x="41.35" y="0">a</tspan><tspan class="cls-41" x="47.68" y="0">t</tspan><tspan class="cls-24" x="50.8" y="0">o</tspan><tspan class="cls-44" x="57.27" y="0">@</tspan><tspan class="cls-35" x="69.02" y="0">b</tspan><tspan class="cls-38" x="75.4" y="0">a</tspan><tspan class="cls-39" x="81.8" y="0">m</tspan><tspan class="cls-33" x="91.42" y="0">hu</tspan><tspan class="cls-28" x="104.16" y="0">b</tspan><tspan class="cls-30" x="110.35" y="0">.</tspan><tspan class="cls-92" x="113.37" y="0">c</tspan><tspan class="cls-46" x="119.32" y="0">o</tspan><tspan x="125.77" y="0">m</tspan><tspan x="0" y="30.08" xml:space="preserve">     </tspan><tspan class="cls-32" x="16.11" y="30.08">+</tspan><tspan class="cls-94" x="22.81" y="30.08">5</tspan><tspan x="29.35" y="30.08">5 </tspan><tspan class="cls-27" x="39.02" y="30.08">1</tspan><tspan x="44.37" y="30.08">1 </tspan><tspan class="cls-55" x="54.04" y="30.08">9</tspan><tspan class="cls-60" x="60.74" y="30.08">6</tspan><tspan class="cls-91" x="67.37" y="30.08">6</tspan><tspan class="cls-59" x="73.98" y="30.08">0</tspan><tspan class="cls-75" x="80.66" y="30.08">0</tspan><tspan class="cls-61" x="87.57" y="30.08">-</tspan><tspan class="cls-86" x="91.95" y="30.08">6</tspan><tspan class="cls-93" x="98.47" y="30.08">5</tspan><tspan class="cls-37" x="105.03" y="30.08">8</tspan><tspan x="111.43" y="30.08">2</tspan></text>
    <g>
      <path class="cls-13" d="M531.64,129.1h10.12c.7,0,1.26.57,1.26,1.26v7.59c0,.7-.57,1.26-1.26,1.26h-10.12c-.7,0-1.26-.57-1.26-1.26v-7.59c0-.7.57-1.26,1.26-1.26Z"/>
      <rect class="cls-12" x="530.37" y="129.1" width="12.64" height="10.12" rx="1.26" ry="1.26"/>
      <path class="cls-13" d="M543.02,130.36l-6.32,4.43-6.32-4.43"/>
      <polyline class="cls-12" points="543.02 130.36 536.7 134.79 530.37 130.36"/>
    </g>
    <g>
      <path class="cls-13" d="M541.24,169.06v-11.53c0-.58-.51-1.05-1.13-1.05h-6.81c-.63,0-1.13.47-1.13,1.05v11.53c0,.58.51,1.05,1.13,1.05h6.81c.63,0,1.13-.47,1.13-1.05Z"/>
      <path class="cls-12" d="M541.24,169.06v-11.53c0-.58-.51-1.05-1.13-1.05h-6.81c-.63,0-1.13.47-1.13,1.05v11.53c0,.58.51,1.05,1.13,1.05h6.81c.63,0,1.13-.47,1.13-1.05Z"/>
      <path class="cls-13" d="M536.7,159.63c.47,0,.85-.35.85-.79s-.38-.79-.85-.79-.85.35-.85.79.38.79.85.79Z"/>
      <ellipse class="cls-13" cx="536.7" cy="158.84" rx=".85" ry=".79"/>
    </g>
  </g>
  <g>
    <g>
      <path class="cls-11" d="M293.9,212.35c3.45,0,6.24-2.79,6.24-6.24s-2.79-6.24-6.24-6.24-6.24,2.79-6.24,6.24,2.79,6.24,6.24,6.24Z"/>
      <path class="cls-8" d="M293.9,212.35c3.45,0,6.24-2.79,6.24-6.24s-2.79-6.24-6.24-6.24-6.24,2.79-6.24,6.24,2.79,6.24,6.24,6.24Z"/>
      <path class="cls-9" d="M287.66,206.1h12.49"/>
      <path class="cls-14" d="M287.66,206.1h12.49"/>
      <path class="cls-11" d="M293.9,212.18c1.44,0,2.6-2.72,2.6-6.07s-1.16-6.07-2.6-6.07-2.6,2.72-2.6,6.07,1.16,6.07,2.6,6.07Z"/>
      <path class="cls-8" d="M293.9,212.18c1.44,0,2.6-2.72,2.6-6.07s-1.16-6.07-2.6-6.07-2.6,2.72-2.6,6.07,1.16,6.07,2.6,6.07Z"/>
    </g>
    <path class="cls-11" d="M314.61,192.58h27.04v27.04h-27.04v-27.04Z"/>
    <g>
      <path class="cls-11" d="M362.41,208.37c1.38,0,2.5-1.12,2.5-2.5s-1.12-2.5-2.5-2.5-2.5,1.12-2.5,2.5,1.12,2.5,2.5,2.5Z"/>
      <path class="cls-8" d="M362.41,208.37c1.38,0,2.5-1.12,2.5-2.5s-1.12-2.5-2.5-2.5-2.5,1.12-2.5,2.5,1.12,2.5,2.5,2.5Z"/>
      <path class="cls-9" d="M365.16,200.11h-5.51c-1.66,0-3,1.35-3,3v5.51c0,1.66,1.35,3,3,3h5.51c1.66,0,3-1.35,3-3v-5.51c0-1.66-1.35-3-3-3Z"/>
      <path class="cls-14" d="M365.16,200.11h-5.51c-1.66,0-3,1.35-3,3v5.51c0,1.66,1.35,3,3,3h5.51c1.66,0,3-1.35,3-3v-5.51c0-1.66-1.35-3-3-3Z"/>
      <path class="cls-11" d="M365.66,203.37c.41,0,.75-.34.75-.75s-.34-.75-.75-.75-.75.34-.75.75.34.75.75.75Z"/>
      <path class="cls-11" d="M365.66,203.37c.41,0,.75-.34.75-.75s-.34-.75-.75-.75-.75.34-.75.75.34.75.75.75Z"/>
    </g>
    <path class="cls-11" d="M348.84,192.58h27.04v27.04h-27.04v-27.04Z"/>
    <g>
      <path class="cls-9" d="M333.39,200.34h-10.52c-.28,0-.5.22-.5.5v10.52c0,.28.22.5.5.5h10.52c.28,0,.5-.22.5-.5v-10.52c0-.28-.22-.5-.5-.5Z"/>
      <path class="cls-14" d="M333.39,200.34h-10.52c-.28,0-.5.22-.5.5v10.52c0,.28.22.5.5.5h10.52c.28,0,.5-.22.5-.5v-10.52c0-.28-.22-.5-.5-.5Z"/>
      <path class="cls-9" d="M327.63,205.1v4.01"/>
      <path class="cls-14" d="M327.63,205.1v4.01"/>
      <path class="cls-9" d="M325.63,205.1v4.01"/>
      <path class="cls-14" d="M325.63,205.1v4.01"/>
      <path class="cls-9" d="M327.63,206.85c0-.46.18-.91.51-1.24.33-.33.77-.51,1.24-.51s.91.18,1.24.51c.33.33.51.77.51,1.24v2.25"/>
      <path class="cls-14" d="M327.63,206.85c0-.46.18-.91.51-1.24.33-.33.77-.51,1.24-.51s.91.18,1.24.51c.33.33.51.77.51,1.24v2.25"/>
      <path class="cls-11" d="M325.63,203.85c.41,0,.75-.34.75-.75s-.34-.75-.75-.75-.75.34-.75.75.34.75.75.75Z"/>
      <path class="cls-11" d="M325.63,203.85c.41,0,.75-.34.75-.75s-.34-.75-.75-.75-.75.34-.75.75.34.75.75.75Z"/>
    </g>
    <path class="cls-11" d="M280.38,192.58h27.04v27.04h-27.04v-27.04Z"/>
  </g>
  <g>
    <path class="cls-26" d="M296.25,30.03h13.02v13.02h-13.02v-13.02ZM296.25,46.31h13.02v13.02h-13.02v-13.02ZM279.97,30.03h6.51c3.6,0,6.51,2.92,6.51,6.51s-2.92,6.51-6.51,6.51h-6.51v-13.02ZM279.97,46.31h6.51c3.6,0,6.51,2.92,6.51,6.51s-2.92,6.51-6.51,6.51h-6.51v-13.02h0Z"/>
    <path class="cls-26" d="M320.27,59.33v-6.9h2.71c.44,0,.8.09,1.1.27.3.18.52.41.67.69.15.28.22.58.22.89,0,.38-.09.71-.28.98-.19.27-.44.46-.75.56v-.23c.43.11.77.32,1.01.64.24.32.36.68.36,1.1s-.08.76-.24,1.06c-.16.3-.4.53-.7.7-.31.17-.68.25-1.12.25h-2.97ZM321.28,55.24h1.68c.19,0,.35-.04.5-.11.15-.07.27-.18.36-.33.09-.14.13-.31.13-.52,0-.27-.09-.49-.27-.66-.18-.17-.42-.26-.72-.26h-1.68v1.87h0ZM321.28,58.37h1.8c.23,0,.43-.04.61-.13.18-.09.32-.21.43-.37.1-.16.16-.35.16-.58,0-.21-.05-.4-.14-.56-.09-.17-.22-.3-.39-.4-.17-.1-.37-.15-.6-.15h-1.86v2.19h0Z"/>
    <path class="cls-26" d="M332.67,59.47c-.54,0-1.02-.11-1.43-.33-.41-.22-.74-.53-.97-.94-.23-.4-.35-.87-.35-1.42v-4.36h1.02s0,4.3,0,4.3c0,.29.05.55.15.78.1.22.23.41.4.56.17.15.35.26.56.34.21.08.42.12.63.12s.43-.04.63-.12c.21-.08.39-.19.56-.34.17-.15.3-.34.4-.56.1-.22.15-.48.15-.77v-4.31h1.02v4.36c0,.54-.12,1.01-.35,1.42-.23.4-.56.72-.97.94-.41.22-.89.33-1.43.33h0Z"/>
    <path class="cls-26" d="M342.83,59.47c-.49,0-.94-.09-1.34-.26s-.72-.42-.98-.73c-.26-.32-.42-.7-.5-1.13l1.05-.16c.1.42.33.75.66.99.34.23.73.35,1.17.35.28,0,.53-.04.77-.13.23-.09.42-.21.56-.38.14-.16.21-.36.21-.59,0-.13-.02-.23-.06-.33-.04-.1-.1-.18-.18-.25-.07-.07-.17-.13-.27-.19-.11-.05-.23-.1-.35-.14l-1.77-.52c-.17-.05-.35-.12-.53-.2-.18-.08-.34-.19-.49-.32-.15-.13-.27-.3-.36-.49-.09-.2-.14-.43-.14-.72,0-.43.11-.79.33-1.08.22-.29.52-.52.89-.67.37-.15.79-.23,1.26-.23.47,0,.88.09,1.25.25.37.16.68.39.92.69.24.3.41.66.51,1.08l-1.07.18c-.05-.26-.15-.48-.31-.67-.16-.19-.35-.33-.57-.43-.23-.1-.47-.15-.74-.16-.26,0-.49.03-.7.12-.21.08-.38.2-.51.35-.13.15-.19.32-.19.52s.06.35.17.46c.11.12.25.21.41.28.16.07.33.13.49.17l1.28.36c.16.04.34.1.54.18.2.07.4.18.59.31.19.13.35.31.47.53s.19.5.19.84-.07.65-.21.92c-.14.26-.33.48-.58.66-.24.18-.53.31-.85.4-.32.09-.66.13-1.01.13h0Z"/>
    <path class="cls-26" d="M350.27,59.33v-6.9h1v6.9h-1Z"/>
    <path class="cls-26" d="M356.37,59.33v-6.9h1.02l3.4,5.13v-5.13h1.02v6.9h-1.02l-3.4-5.14v5.14h-1.02Z"/>
    <path class="cls-26" d="M366.85,59.33v-6.9h4.41v.94h-3.41v1.94h2.83v.94h-2.83v2.13h3.41v.94h-4.41Z"/>
    <path class="cls-26" d="M378.38,59.47c-.49,0-.94-.09-1.34-.26-.4-.17-.72-.42-.98-.73s-.42-.7-.5-1.13l1.04-.16c.1.42.33.75.66.99.34.23.73.35,1.17.35.28,0,.53-.04.77-.13.23-.09.42-.21.56-.38.14-.16.21-.36.21-.59,0-.13-.02-.23-.06-.33-.04-.1-.1-.18-.18-.25-.07-.07-.17-.13-.27-.19-.11-.05-.23-.1-.35-.14l-1.77-.52c-.17-.05-.35-.12-.53-.2-.18-.08-.34-.19-.49-.32-.15-.13-.27-.3-.36-.49-.09-.2-.14-.43-.14-.72,0-.43.11-.79.33-1.08.22-.29.52-.52.89-.67.37-.15.79-.23,1.26-.23.47,0,.88.09,1.25.25.37.16.68.39.92.69.24.3.41.66.51,1.08l-1.07.18c-.05-.26-.15-.48-.31-.67-.16-.19-.35-.33-.58-.43-.23-.1-.47-.15-.74-.16-.26,0-.49.03-.7.12-.21.08-.38.2-.51.35-.13.15-.19.32-.19.52s.06.35.17.46c.11.12.25.21.41.28.16.07.33.13.49.17l1.28.36c.16.04.34.1.54.18.2.07.4.18.59.31.19.13.35.31.47.53.13.22.19.5.19.84s-.07.65-.21.92c-.14.26-.33.48-.58.66-.24.18-.53.31-.84.4-.32.09-.66.13-1.01.13h0s0,0,0,0Z"/>
    <path class="cls-26" d="M388.29,59.47c-.49,0-.94-.09-1.34-.26-.4-.17-.72-.42-.98-.73s-.42-.7-.5-1.13l1.05-.16c.1.42.33.75.66.99.34.23.73.35,1.17.35.28,0,.53-.04.77-.13.23-.09.42-.21.56-.38.14-.16.21-.36.21-.59,0-.13-.02-.23-.06-.33-.04-.1-.1-.18-.18-.25-.07-.07-.17-.13-.27-.19-.11-.05-.22-.1-.35-.14l-1.77-.52c-.17-.05-.35-.12-.53-.2-.18-.08-.34-.19-.49-.32-.15-.13-.27-.3-.36-.49-.09-.2-.14-.43-.14-.72,0-.43.11-.79.33-1.08.22-.29.52-.52.89-.67.37-.15.79-.23,1.25-.23.47,0,.88.09,1.25.25.37.16.68.39.92.69.24.3.41.66.51,1.08l-1.07.18c-.05-.26-.15-.48-.31-.67-.16-.19-.35-.33-.57-.43-.23-.1-.47-.15-.74-.16-.26,0-.49.03-.7.12s-.38.2-.51.35-.19.32-.19.52.06.35.17.46c.11.12.25.21.41.28.16.07.33.13.49.17l1.28.36c.16.04.34.1.54.18.2.07.4.18.59.31.19.13.35.31.47.53s.19.5.19.84-.07.65-.21.92c-.14.26-.33.48-.58.66-.24.18-.53.31-.84.4-.32.09-.66.13-1.01.13h0s0,0,0,0Z"/>
    <path class="cls-26" d="M398.85,59.33v-6.9h1v2.98h3.45v-2.98h1.01v6.9h-1.01v-2.98h-3.45v2.98h-1Z"/>
    <path class="cls-26" d="M412.28,59.47c-.69,0-1.28-.15-1.76-.45-.49-.3-.86-.72-1.11-1.26-.26-.54-.39-1.17-.39-1.88s.13-1.34.39-1.88.63-.96,1.11-1.26c.49-.3,1.07-.45,1.76-.45s1.27.15,1.76.45c.49.3.86.72,1.11,1.26.26.54.38,1.17.38,1.88s-.13,1.34-.38,1.88c-.26.54-.63.96-1.11,1.26-.49.3-1.07.45-1.76.45ZM412.28,58.52c.49,0,.89-.1,1.22-.32.32-.22.57-.53.73-.93.16-.4.24-.86.24-1.39s-.08-.99-.24-1.38c-.16-.4-.41-.7-.73-.92-.32-.22-.73-.33-1.22-.34-.49,0-.89.1-1.22.32-.32.22-.57.53-.73.93-.16.4-.25.86-.25,1.39,0,.53.08.99.24,1.38.16.4.41.7.74.92.33.22.74.33,1.22.34h0Z"/>
    <path class="cls-26" d="M420.24,59.33v-6.9h.91l2.5,5.19,2.49-5.19h.91v6.9h-.95v-4.72l-2.23,4.73h-.46l-2.23-4.73v4.73h-.95Z"/>
    <path class="cls-26" d="M432.1,59.33v-6.9h4.41v.94h-3.41v1.94h2.83v.94h-2.83v2.13h3.41v.94h-4.41Z"/>
    <path class="cls-18" d="M328.99,38.41c.47-.28.87-.65,1.19-1.09.52-.71.79-1.55.79-2.5,0-1.56-.52-2.77-1.53-3.58-.99-.8-2.44-1.21-4.31-1.21h-5.32v17.59h5.97c1.79,0,3.21-.45,4.22-1.34,1.04-.91,1.56-2.18,1.56-3.78,0-1.06-.33-2.01-.98-2.83-.43-.55-.97-.97-1.6-1.26h0ZM321.99,39.53h3.96c1.09,0,1.94.27,2.54.82.6.53.89,1.24.89,2.17,0,.99-.31,1.74-.93,2.3-.63.55-1.51.83-2.61.83h-3.84v-6.11h0ZM327.94,36.83c-.57.47-1.41.72-2.48.74h-3.46v-5.56h3.13c1.26,0,2.2.23,2.79.7.58.43.86,1.11.86,2.07s-.27,1.58-.83,2.05h0ZM372.61,30.03h2.53v17.59h-2.18v-7.71l.08-5.51-5.54,13.22h-1.6l-5.52-13.16.08,5.4v7.76h-2.18v-17.59h2.52l5.9,14.22,5.92-14.22ZM435.53,39.67c-.44-.55-.97-.97-1.6-1.26.47-.28.87-.65,1.19-1.09.52-.71.79-1.55.79-2.5,0-1.56-.52-2.77-1.53-3.58-.99-.8-2.44-1.21-4.31-1.21h-5.32v17.59h5.97c1.79,0,3.21-.45,4.22-1.34,1.04-.91,1.57-2.18,1.57-3.78,0-1.06-.33-2.01-.98-2.83h0ZM426.93,39.53h3.96c1.09,0,1.94.27,2.54.82.6.53.89,1.24.89,2.17,0,.99-.31,1.74-.93,2.3-.63.55-1.51.83-2.61.83h-3.84v-6.11h0ZM432.88,36.83c-.57.47-1.41.72-2.48.74h-3.46v-5.56h3.13c1.26,0,2.2.23,2.79.7.58.43.86,1.11.86,2.07s-.27,1.58-.83,2.05h0ZM414.69,30.03h2.2v11.87c0,1.2-.28,2.26-.8,3.15-.53.9-1.28,1.6-2.23,2.09-.94.47-2.03.71-3.24.71-1.85,0-3.36-.52-4.49-1.54-1.13-1.04-1.73-2.49-1.77-4.3v-11.98h2.17v11.76c0,1.3.37,2.32,1.09,3.03.73.71,1.71,1.06,3,1.06s2.27-.36,2.98-1.07c.73-.72,1.09-1.7,1.09-3v-11.78h0ZM343.57,30.03l-6.61,17.59h2.31l1.72-4.71h7.04l1.73,4.71h2.3l-6.61-17.59h-1.88ZM347.3,40.92h-5.59l2.79-7.64,2.79,7.64ZM394.24,30.03h2.2v17.59h-2.2v-8.06h-8.77v8.06h-2.18v-17.59h2.18v7.55h8.77v-7.55Z"/>
  </g>
  <text class="cls-19" transform="translate(29.58 203.72) scale(.98 1)"><tspan class="cls-56" x="0" y="0">L</tspan><tspan class="cls-83" x="6.2" y="0">u</tspan><tspan class="cls-89" x="12.49" y="0">x</tspan><tspan class="cls-68" x="17.98" y="0">e</tspan><tspan class="cls-66" x="24.26" y="0">m</tspan><tspan class="cls-69" x="33.5" y="0">b</tspan><tspan class="cls-84" x="39.82" y="0">o</tspan><tspan class="cls-51" x="46.11" y="0">u</tspan><tspan class="cls-71" x="52.36" y="0">r</tspan><tspan class="cls-66" x="56.27" y="0">g - </tspan><tspan class="cls-76" x="73.02" y="0">M</tspan><tspan class="cls-66" x="82.33" y="0">i</tspan><tspan class="cls-80" x="85.03" y="0">a</tspan><tspan class="cls-79" x="91.29" y="0">m</tspan><tspan class="cls-64" x="100.52" y="0">i - </tspan><tspan class="cls-85" x="113.7" y="0">S</tspan><tspan class="cls-80" x="121.19" y="0">ã</tspan><tspan class="cls-66" x="127.45" y="0">o </tspan><tspan class="cls-54" x="137.02" y="0">P</tspan><tspan class="cls-48" x="144.35" y="0">a</tspan><tspan class="cls-50" x="150.57" y="0">u</tspan><tspan class="cls-72" x="156.82" y="0">l</tspan><tspan class="cls-66" x="159.55" y="0">o</tspan><tspan class="cls-77" x="0" y="16.28">M</tspan><tspan class="cls-81" x="9.33" y="16.28">a</tspan><tspan class="cls-52" x="15.59" y="16.28">d</tspan><tspan class="cls-63" x="21.83" y="16.28">r</tspan><tspan class="cls-74" x="25.87" y="16.28">i</tspan><tspan class="cls-66" x="28.61" y="16.28">d</tspan></text>
</svg>