<?xml version="1.0" encoding="UTF-8"?>
<svg id="Camada_1" data-name="Camada 1" xmlns="http://www.w3.org/2000/svg" viewBox="0 0 500 250">
  <defs>
    <style>
      .cls-1, .cls-2, .cls-3, .cls-4, .cls-5, .cls-6 {
        fill: none;
        stroke-width: .75px;
      }

      .cls-1, .cls-3, .cls-4 {
        stroke-linecap: round;
        stroke-linejoin: round;
      }

      .cls-1, .cls-5 {
        stroke: rgba(27, 27, 27, .2);
      }

      .cls-7 {
        fill: #eaeaea;
      }

      .cls-8 {
        font-size: 19.34px;
      }

      .cls-8, .cls-9, .cls-10, .cls-11, .cls-12 {
        fill: #1b1b1b;
      }

      .cls-8, .cls-11 {
        font-family: Arial-BoldMT, Arial;
        font-weight: 700;
      }

      .cls-2 {
        stroke: #1b1b1b;
      }

      .cls-2, .cls-5, .cls-6 {
        stroke-miterlimit: 10;
      }

      .cls-13 {
        letter-spacing: 0em;
      }

      .cls-14 {
        letter-spacing: 0em;
      }

      .cls-15 {
        letter-spacing: 0em;
      }

      .cls-3 {
        opacity: .2;
      }

      .cls-3, .cls-4, .cls-6 {
        stroke: #1b1b1b;
      }

      .cls-16 {
        letter-spacing: 0em;
      }

      .cls-17 {
        fill: #ada690;
      }

      .cls-9 {
        font-size: 10.71px;
      }

      .cls-9, .cls-10 {
        font-family: ArialMT, Arial;
      }

      .cls-10, .cls-11 {
        font-size: 11.6px;
      }

      .cls-18 {
        letter-spacing: -.1em;
      }

      .cls-19 {
        letter-spacing: -.02em;
      }

      .cls-20 {
        letter-spacing: -.02em;
      }

      .cls-21 {
        letter-spacing: 0em;
      }

      .cls-22 {
        letter-spacing: 0em;
      }

      .cls-23 {
        letter-spacing: 0em;
      }

      .cls-24 {
        letter-spacing: 0em;
      }

      .cls-25 {
        letter-spacing: 0em;
      }

      .cls-26 {
        letter-spacing: 0em;
      }

      .cls-27 {
        letter-spacing: -.01em;
      }

      .cls-28 {
        letter-spacing: 0em;
      }

      .cls-29 {
        letter-spacing: -.01em;
      }

      .cls-30 {
        letter-spacing: 0em;
      }

      .cls-31 {
        letter-spacing: 0em;
      }

      .cls-32 {
        letter-spacing: .03em;
      }

      .cls-33 {
        letter-spacing: .02em;
      }

      .cls-34 {
        letter-spacing: .02em;
      }

      .cls-35 {
        letter-spacing: .03em;
      }

      .cls-36 {
        letter-spacing: .03em;
      }

      .cls-37 {
        letter-spacing: .03em;
      }

      .cls-38 {
        letter-spacing: .03em;
      }

      .cls-39 {
        letter-spacing: .02em;
      }

      .cls-40 {
        letter-spacing: .02em;
      }

      .cls-41 {
        letter-spacing: .02em;
      }

      .cls-42 {
        letter-spacing: .02em;
      }

      .cls-43 {
        letter-spacing: .02em;
      }

      .cls-44 {
        letter-spacing: .02em;
      }

      .cls-45 {
        letter-spacing: .02em;
      }

      .cls-46 {
        letter-spacing: .04em;
      }

      .cls-47 {
        letter-spacing: .04em;
      }

      .cls-48 {
        letter-spacing: .04em;
      }

      .cls-49 {
        letter-spacing: .03em;
      }

      .cls-50 {
        letter-spacing: .03em;
      }

      .cls-51 {
        letter-spacing: .03em;
      }

      .cls-52 {
        letter-spacing: .03em;
      }

      .cls-53 {
        letter-spacing: .03em;
      }

      .cls-54 {
        letter-spacing: .03em;
      }

      .cls-55 {
        letter-spacing: .03em;
      }

      .cls-56 {
        letter-spacing: .03em;
      }

      .cls-57 {
        letter-spacing: .03em;
      }

      .cls-58 {
        letter-spacing: .03em;
      }

      .cls-59 {
        letter-spacing: .03em;
      }

      .cls-60 {
        letter-spacing: .04em;
      }

      .cls-61 {
        letter-spacing: .04em;
      }

      .cls-62 {
        letter-spacing: .04em;
      }

      .cls-63 {
        letter-spacing: .03em;
      }

      .cls-64 {
        letter-spacing: .03em;
      }

      .cls-65 {
        letter-spacing: .03em;
      }

      .cls-66 {
        letter-spacing: .03em;
      }

      .cls-67 {
        letter-spacing: .03em;
      }

      .cls-68 {
        letter-spacing: .03em;
      }

      .cls-69 {
        letter-spacing: .03em;
      }

      .cls-70 {
        letter-spacing: .03em;
      }

      .cls-71 {
        letter-spacing: 0em;
      }

      .cls-72 {
        letter-spacing: 0em;
      }

      .cls-73 {
        letter-spacing: 0em;
      }

      .cls-74 {
        letter-spacing: .01em;
      }

      .cls-75 {
        letter-spacing: .01em;
      }

      .cls-76 {
        letter-spacing: .01em;
      }

      .cls-77 {
        letter-spacing: .01em;
      }

      .cls-78 {
        letter-spacing: 0em;
      }

      .cls-79 {
        letter-spacing: 0em;
      }

      .cls-80 {
        letter-spacing: 0em;
      }
    </style>
  </defs>
  <rect class="cls-7" width="250" height="250"/>
  <line class="cls-2" x1="30" y1="77.67" x2="220" y2="77.67"/>
  <rect class="cls-17" x="250" width="250" height="250" transform="translate(250 500) rotate(-90)"/>
  <g>
    <g>
      <path class="cls-6" d="M293.91,212.33c3.45,0,6.24-2.79,6.24-6.24s-2.79-6.24-6.24-6.24-6.24,2.79-6.24,6.24,2.79,6.24,6.24,6.24Z"/>
      <path class="cls-5" d="M293.91,212.33c3.45,0,6.24-2.79,6.24-6.24s-2.79-6.24-6.24-6.24-6.24,2.79-6.24,6.24,2.79,6.24,6.24,6.24Z"/>
      <path class="cls-4" d="M287.67,206.09h12.49"/>
      <path class="cls-1" d="M287.67,206.09h12.49"/>
      <path class="cls-6" d="M293.91,212.16c1.44,0,2.6-2.72,2.6-6.07s-1.16-6.07-2.6-6.07-2.6,2.72-2.6,6.07,1.16,6.07,2.6,6.07Z"/>
      <path class="cls-5" d="M293.91,212.16c1.44,0,2.6-2.72,2.6-6.07s-1.16-6.07-2.6-6.07-2.6,2.72-2.6,6.07,1.16,6.07,2.6,6.07Z"/>
    </g>
    <path class="cls-6" d="M314.62,192.57h27.04v27.04h-27.04v-27.04Z"/>
    <g>
      <path class="cls-6" d="M362.42,208.36c1.38,0,2.5-1.12,2.5-2.5s-1.12-2.5-2.5-2.5-2.5,1.12-2.5,2.5,1.12,2.5,2.5,2.5Z"/>
      <path class="cls-5" d="M362.42,208.36c1.38,0,2.5-1.12,2.5-2.5s-1.12-2.5-2.5-2.5-2.5,1.12-2.5,2.5,1.12,2.5,2.5,2.5Z"/>
      <path class="cls-4" d="M365.17,200.1h-5.51c-1.66,0-3,1.35-3,3v5.51c0,1.66,1.35,3,3,3h5.51c1.66,0,3-1.35,3-3v-5.51c0-1.66-1.35-3-3-3Z"/>
      <path class="cls-1" d="M365.17,200.1h-5.51c-1.66,0-3,1.35-3,3v5.51c0,1.66,1.35,3,3,3h5.51c1.66,0,3-1.35,3-3v-5.51c0-1.66-1.35-3-3-3Z"/>
      <path class="cls-6" d="M365.67,203.35c.41,0,.75-.34.75-.75s-.34-.75-.75-.75-.75.34-.75.75.34.75.75.75Z"/>
      <path class="cls-6" d="M365.67,203.35c.41,0,.75-.34.75-.75s-.34-.75-.75-.75-.75.34-.75.75.34.75.75.75Z"/>
    </g>
    <path class="cls-6" d="M348.85,192.57h27.04v27.04h-27.04v-27.04Z"/>
    <g>
      <path class="cls-4" d="M333.4,200.33h-10.52c-.28,0-.5.22-.5.5v10.52c0,.28.22.5.5.5h10.52c.28,0,.5-.22.5-.5v-10.52c0-.28-.22-.5-.5-.5Z"/>
      <path class="cls-1" d="M333.4,200.33h-10.52c-.28,0-.5.22-.5.5v10.52c0,.28.22.5.5.5h10.52c.28,0,.5-.22.5-.5v-10.52c0-.28-.22-.5-.5-.5Z"/>
      <path class="cls-4" d="M327.64,205.09v4.01"/>
      <path class="cls-1" d="M327.64,205.09v4.01"/>
      <path class="cls-4" d="M325.64,205.09v4.01"/>
      <path class="cls-1" d="M325.64,205.09v4.01"/>
      <path class="cls-4" d="M327.64,206.84c0-.46.18-.91.51-1.24.33-.33.77-.51,1.24-.51s.91.18,1.24.51c.33.33.51.77.51,1.24v2.25"/>
      <path class="cls-1" d="M327.64,206.84c0-.46.18-.91.51-1.24.33-.33.77-.51,1.24-.51s.91.18,1.24.51c.33.33.51.77.51,1.24v2.25"/>
      <path class="cls-6" d="M325.64,203.84c.41,0,.75-.34.75-.75s-.34-.75-.75-.75-.75.34-.75.75.34.75.75.75Z"/>
      <path class="cls-6" d="M325.64,203.84c.41,0,.75-.34.75-.75s-.34-.75-.75-.75-.75.34-.75.75.34.75.75.75Z"/>
    </g>
    <path class="cls-6" d="M280.39,192.57h27.04v27.04h-27.04v-27.04Z"/>
  </g>
  <g>
    <path class="cls-12" d="M296.14,30.03h12.91v12.91h-12.91v-12.91ZM296.14,46.17h12.91v12.91h-12.91v-12.91ZM280,30.03h6.46c3.56,0,6.46,2.89,6.46,6.46s-2.89,6.46-6.46,6.46h-6.46v-12.91ZM280,46.17h6.46c3.56,0,6.46,2.89,6.46,6.46s-2.89,6.46-6.46,6.46h-6.46v-12.91Z"/>
    <path class="cls-12" d="M328.3,38.77c.49-.3.91-.68,1.24-1.14.54-.74.82-1.62.82-2.61,0-1.63-.54-2.89-1.6-3.74-1.03-.83-2.55-1.26-4.5-1.26h-5.55v18.35h6.23c1.86,0,3.34-.47,4.41-1.4,1.08-.95,1.63-2.28,1.63-3.94,0-1.11-.34-2.1-1.02-2.95-.45-.58-1.01-1.02-1.67-1.32ZM321,39.94h4.13c1.13,0,2.03.29,2.65.85.62.55.93,1.29.93,2.26,0,1.04-.32,1.82-.97,2.39-.65.57-1.57.86-2.72.86h-4.01v-6.37ZM327.2,37.12c-.59.49-1.47.75-2.59.77h-3.61v-5.79h3.27c1.31,0,2.29.24,2.92.73.6.45.89,1.16.89,2.16s-.28,1.65-.87,2.14ZM373.81,30.03h2.63v18.35h-2.28v-8.04l.09-5.75-5.78,13.79h-1.67l-5.75-13.73.09,5.63v8.1h-2.28v-18.35h2.62l6.15,14.83,6.18-14.83ZM439.44,40.08c-.45-.58-1.01-1.02-1.67-1.32.49-.3.91-.68,1.24-1.14.54-.74.82-1.62.82-2.61,0-1.63-.54-2.89-1.6-3.74-1.03-.83-2.55-1.26-4.5-1.26h-5.55v18.35h6.23c1.86,0,3.34-.47,4.4-1.4,1.08-.95,1.63-2.28,1.63-3.94,0-1.11-.34-2.1-1.02-2.95ZM430.47,39.94h4.13c1.13,0,2.03.29,2.65.85.62.55.93,1.29.93,2.26,0,1.04-.32,1.82-.97,2.39-.65.57-1.57.86-2.72.86h-4.01v-6.37ZM436.68,37.12c-.59.49-1.47.75-2.59.77h-3.61v-5.79h3.27c1.31,0,2.29.24,2.92.73.6.45.89,1.16.89,2.16s-.28,1.65-.87,2.14ZM417.71,30.03h2.29v12.38c0,1.25-.29,2.36-.83,3.29-.55.94-1.33,1.67-2.33,2.18-.98.49-2.12.74-3.38.74-1.93,0-3.5-.54-4.69-1.61-1.18-1.09-1.8-2.59-1.84-4.48v-12.5s2.27,0,2.27,0v12.27c0,1.36.38,2.42,1.13,3.16.76.74,1.79,1.1,3.13,1.1s2.37-.37,3.11-1.11c.77-.75,1.14-1.77,1.14-3.14v-12.28ZM343.51,30.03l-6.89,18.35h2.41l1.79-4.92h7.34l1.81,4.92h2.4l-6.89-18.35h-1.96ZM347.4,41.39h-5.83l2.92-7.97,2.92,7.97ZM396.37,30.03h2.29v18.35h-2.29v-8.41h-9.14v8.41h-2.28v-18.35h2.28v7.88h9.14v-7.88Z"/>
    <g>
      <path class="cls-12" d="M323.31,57.38c0,.36-.13.72-.35,1.02-.23.29-.54.48-.87.59-.21.06-.43.09-.64.09h-2.27v-5.71h2.15c.19,0,.41.02.58.07.32.09.6.28.79.55.21.25.32.59.34.94.02.33-.11.67-.32.94-.03.05-.07.1-.1.13.13.1.26.23.36.37.22.29.33.65.33,1.02ZM320.08,54.19v1.47h1.42c.16-.03.36-.13.48-.29.1-.13.16-.29.15-.45,0-.18-.07-.35-.19-.48-.13-.15-.32-.25-.52-.25h-1.34ZM322.41,57.38c0-.21-.08-.43-.21-.59-.17-.21-.41-.29-.63-.29h-1.47v1.72h1.36c.29,0,.52-.04.71-.25.17-.15.25-.36.26-.59Z"/>
      <path class="cls-12" d="M331.77,56.96c0,.52-.17,1.02-.5,1.42-.42.54-1.09.81-1.78.81s-1.36-.28-1.78-.81c-.32-.39-.51-.93-.51-1.42v-3.59h.9s0,3.48,0,3.48c0,.37.06.67.29.98.26.33.68.52,1.1.52s.83-.19,1.09-.53c.23-.3.29-.59.29-.97v-3.49h.9v3.6Z"/>
      <path class="cls-12" d="M339.19,55.04c-.14-.33-.3-.57-.59-.75-.21-.13-.48-.22-.75-.22s-.55.06-.75.17c-.23.13-.36.36-.36.58,0,.14.06.27.15.37.13.13.41.25.71.33l1.01.29c.47.13.78.29,1.04.54.32.31.51.71.51,1.16,0,.49-.28,1-.71,1.29-.42.29-.94.37-1.52.37-.75,0-1.4-.21-1.85-.78-.26-.33-.4-.72-.49-1.09l.9-.25c.06.29.15.56.31.75.25.36.73.52,1.17.52.33,0,.74-.09.97-.26.21-.16.29-.38.29-.58,0-.18-.07-.36-.21-.48-.15-.14-.34-.24-.59-.31l-1.05-.31c-.41-.12-.79-.27-1.08-.52-.32-.28-.46-.69-.46-1.07,0-.59.38-1.11.88-1.34.4-.19.79-.23,1.17-.23.4,0,.82.08,1.19.29.48.26.84.71,1.05,1.28l-.9.25Z"/>
      <path class="cls-12" d="M344.91,53.35v5.71h-.9v-5.71h.9Z"/>
      <path class="cls-12" d="M352.69,57.42v-4.07h.9v5.71h-.79l-2.77-4.07v4.07h-.91v-5.71h.79l2.78,4.07Z"/>
      <path class="cls-12" d="M358.73,54.24v1.52h2.27v.89h-2.27v1.52h2.75v.9h-3.65v-5.71h3.65v.89h-2.75Z"/>
      <path class="cls-12" d="M368.67,55.04c-.14-.33-.3-.57-.59-.75-.21-.13-.48-.22-.75-.22s-.55.06-.75.17c-.23.13-.36.36-.36.58,0,.14.06.27.15.37.13.13.41.25.71.33l1.01.29c.47.13.78.29,1.04.54.32.31.51.71.51,1.16,0,.49-.28,1-.71,1.29-.42.29-.94.37-1.52.37-.75,0-1.4-.21-1.85-.78-.26-.33-.4-.72-.49-1.09l.9-.25c.06.29.15.56.31.75.25.36.73.52,1.17.52.33,0,.74-.09.97-.26.21-.16.29-.38.29-.58,0-.18-.07-.36-.21-.48-.15-.14-.34-.24-.59-.31l-1.05-.31c-.41-.12-.79-.27-1.08-.52-.32-.28-.46-.69-.46-1.07,0-.59.38-1.11.88-1.34.4-.19.79-.23,1.17-.23.4,0,.82.08,1.19.29.48.26.84.71,1.05,1.28l-.9.25Z"/>
      <path class="cls-12" d="M376.83,55.04c-.14-.33-.3-.57-.59-.75-.21-.13-.48-.22-.75-.22s-.55.06-.75.17c-.23.13-.36.36-.36.58,0,.14.06.27.15.37.13.13.41.25.71.33l1.01.29c.47.13.78.29,1.04.54.32.31.51.71.51,1.16,0,.49-.28,1-.71,1.29-.42.29-.94.37-1.52.37-.75,0-1.4-.21-1.85-.78-.26-.33-.4-.72-.49-1.09l.9-.25c.06.29.15.56.31.75.25.36.73.52,1.17.52.33,0,.74-.09.97-.26.21-.16.29-.38.29-.58,0-.18-.07-.36-.21-.48-.15-.14-.34-.24-.59-.31l-1.05-.31c-.41-.12-.79-.27-1.08-.52-.32-.28-.46-.69-.46-1.07,0-.59.38-1.11.88-1.34.4-.19.79-.23,1.17-.23.4,0,.82.08,1.19.29.48.26.84.71,1.05,1.28l-.9.25Z"/>
      <path class="cls-12" d="M385.17,54.24v1.52h2.27v.89h-2.27v1.52h2.75v.9h-3.65v-5.71h3.65v.89h-2.75Z"/>
      <path class="cls-12" d="M397.68,59.07h-.9v-3.78l-1.79,3.78h-.38l-1.8-3.78v3.78h-.9v-5.71h.9l1.99,4.17,1.98-4.17h.9v5.71Z"/>
      <path class="cls-12" d="M406.05,57.38c0,.36-.13.72-.35,1.02-.23.29-.54.48-.87.59-.21.06-.43.09-.64.09h-2.27v-5.71h2.15c.19,0,.41.02.58.07.32.09.6.28.79.55.21.25.32.59.34.94.02.33-.11.67-.32.94-.03.05-.07.1-.1.13.13.1.26.23.36.37.22.29.33.65.33,1.02ZM402.82,54.19v1.47h1.42c.16-.03.36-.13.48-.29.1-.13.16-.29.15-.45,0-.18-.07-.35-.19-.48-.13-.15-.32-.25-.52-.25h-1.34ZM405.15,57.38c0-.21-.08-.43-.21-.59-.17-.21-.41-.29-.63-.29h-1.47v1.72h1.36c.29,0,.52-.04.71-.25.17-.15.25-.36.26-.59Z"/>
      <path class="cls-12" d="M413.07,58.09h-2.48l-.31.98h-.92l1.83-5.71h1.29l1.83,5.71h-.93l-.32-.98ZM412.8,57.25l-.97-3.01-.97,3.01h1.94Z"/>
      <path class="cls-12" d="M421.17,55.04c-.14-.33-.3-.57-.59-.75-.21-.13-.48-.22-.75-.22s-.55.06-.75.17c-.23.13-.36.36-.36.58,0,.14.06.27.15.37.13.13.41.25.71.33l1.01.29c.47.13.78.29,1.04.54.32.31.51.71.51,1.16,0,.49-.28,1-.71,1.29-.42.29-.94.37-1.52.37-.75,0-1.4-.21-1.85-.78-.26-.33-.4-.72-.49-1.09l.9-.25c.06.29.15.56.31.75.25.36.73.52,1.17.52.33,0,.74-.09.97-.26.21-.16.29-.38.29-.58,0-.18-.07-.36-.21-.48-.15-.14-.34-.24-.59-.31l-1.05-.31c-.41-.12-.79-.27-1.08-.52-.32-.28-.46-.69-.46-1.07,0-.59.38-1.11.88-1.34.4-.19.79-.23,1.17-.23.4,0,.82.08,1.19.29.48.26.84.71,1.05,1.28l-.9.25Z"/>
      <path class="cls-12" d="M429.34,55.04c-.14-.33-.3-.57-.59-.75-.21-.13-.48-.22-.75-.22s-.55.06-.75.17c-.23.13-.36.36-.36.58,0,.14.06.27.15.37.13.13.41.25.71.33l1.01.29c.47.13.78.29,1.04.54.32.31.51.71.51,1.16,0,.49-.28,1-.71,1.29-.42.29-.94.37-1.52.37-.75,0-1.4-.21-1.85-.78-.26-.33-.4-.72-.49-1.09l.9-.25c.06.29.15.56.31.75.25.36.73.52,1.17.52.33,0,.74-.09.97-.26.21-.16.29-.38.29-.58,0-.18-.07-.36-.21-.48-.15-.14-.34-.24-.59-.31l-1.05-.31c-.41-.12-.79-.27-1.08-.52-.32-.28-.46-.69-.46-1.07,0-.59.38-1.11.88-1.34.4-.19.79-.23,1.17-.23.4,0,.82.08,1.19.29.48.26.84.71,1.05,1.28l-.9.25Z"/>
      <path class="cls-12" d="M438.15,53.35l-1.93,3.36v2.35h-.9v-2.35l-1.93-3.36h1.04l1.35,2.34,1.35-2.34h1.04Z"/>
    </g>
  </g>
  <text class="cls-8" transform="translate(28.67 44.17) scale(.98 1)"><tspan class="cls-73" x="0" y="0">F</tspan><tspan class="cls-38" x="11.89" y="0">e</tspan><tspan class="cls-34" x="23.16" y="0">l</tspan><tspan class="cls-63" x="29" y="0">i</tspan><tspan class="cls-47" x="34.87" y="0">p</tspan><tspan class="cls-50" x="47.38" y="0">e </tspan><tspan class="cls-55" x="64.67" y="0">M</tspan><tspan class="cls-67" x="81.44" y="0">A</tspan><tspan class="cls-42" x="96.01" y="0">R</tspan><tspan class="cls-32" x="110.4" y="0">T</tspan><tspan class="cls-58" x="122.7" y="0">I</tspan><tspan class="cls-43" x="128.72" y="0">N</tspan><tspan class="cls-52" x="143.13" y="0">S</tspan></text>
  <text class="cls-9" transform="translate(29.58 203.72) scale(.98 1)"><tspan class="cls-41" x="0" y="0">L</tspan><tspan class="cls-68" x="6.2" y="0">u</tspan><tspan class="cls-74" x="12.49" y="0">x</tspan><tspan class="cls-53" x="17.98" y="0">e</tspan><tspan class="cls-51" x="24.26" y="0">m</tspan><tspan class="cls-54" x="33.5" y="0">b</tspan><tspan class="cls-69" x="39.82" y="0">o</tspan><tspan class="cls-36" x="46.11" y="0">u</tspan><tspan class="cls-56" x="52.36" y="0">r</tspan><tspan class="cls-51" x="56.27" y="0">g - </tspan><tspan class="cls-61" x="73.02" y="0">M</tspan><tspan class="cls-51" x="82.33" y="0">i</tspan><tspan class="cls-65" x="85.03" y="0">a</tspan><tspan class="cls-64" x="91.29" y="0">m</tspan><tspan class="cls-49" x="100.52" y="0">i - </tspan><tspan class="cls-70" x="113.7" y="0">S</tspan><tspan class="cls-65" x="121.19" y="0">ã</tspan><tspan class="cls-51" x="127.45" y="0">o </tspan><tspan class="cls-39" x="137.02" y="0">P</tspan><tspan class="cls-33" x="144.35" y="0">a</tspan><tspan class="cls-35" x="150.57" y="0">u</tspan><tspan class="cls-57" x="156.82" y="0">l</tspan><tspan class="cls-51" x="159.55" y="0">o</tspan><tspan class="cls-62" x="0" y="16.28">M</tspan><tspan class="cls-66" x="9.33" y="16.28">a</tspan><tspan class="cls-37" x="15.59" y="16.28">d</tspan><tspan class="cls-48" x="21.83" y="16.28">r</tspan><tspan class="cls-59" x="25.87" y="16.28">i</tspan><tspan class="cls-51" x="28.61" y="16.28">d</tspan></text>
  <text class="cls-11" transform="translate(279.1 108.29) scale(.98 1)"><tspan class="cls-72" x="0" y="0">D</tspan><tspan class="cls-13" x="8.43" y="0">i</tspan><tspan class="cls-15" x="11.67" y="0">r</tspan><tspan class="cls-14" x="16.21" y="0">e</tspan><tspan class="cls-75" x="22.69" y="0">c</tspan><tspan class="cls-16" x="29.29" y="0">t</tspan><tspan class="cls-72" x="33.16" y="0">o</tspan><tspan x="40.29" y="0">r</tspan></text>
  <text class="cls-10" transform="translate(281.33 137.44) scale(.98 1)"><tspan x="0" y="0" xml:space="preserve">      </tspan><tspan class="cls-77" x="19.34" y="0">c</tspan><tspan class="cls-31" x="25.29" y="0">o</tspan><tspan class="cls-27" x="31.74" y="0">n</tspan><tspan class="cls-80" x="38.04" y="0">t</tspan><tspan class="cls-29" x="41.35" y="0">a</tspan><tspan class="cls-28" x="47.68" y="0">t</tspan><tspan class="cls-15" x="50.8" y="0">o</tspan><tspan class="cls-30" x="57.27" y="0">@</tspan><tspan class="cls-23" x="69.02" y="0">b</tspan><tspan class="cls-25" x="75.4" y="0">a</tspan><tspan class="cls-26" x="81.8" y="0">m</tspan><tspan class="cls-22" x="91.42" y="0">hu</tspan><tspan class="cls-19" x="104.16" y="0">b</tspan><tspan class="cls-20" x="110.35" y="0">.</tspan><tspan class="cls-77" x="113.37" y="0">c</tspan><tspan class="cls-31" x="119.32" y="0">o</tspan><tspan x="125.77" y="0">m</tspan><tspan x="0" y="30.08" xml:space="preserve">     </tspan><tspan class="cls-21" x="16.11" y="30.08">+</tspan><tspan class="cls-79" x="22.81" y="30.08">5</tspan><tspan x="29.35" y="30.08">5 </tspan><tspan class="cls-18" x="39.02" y="30.08">1</tspan><tspan x="44.37" y="30.08">1 </tspan><tspan class="cls-40" x="54.04" y="30.08">9</tspan><tspan class="cls-45" x="60.74" y="30.08">6</tspan><tspan class="cls-76" x="67.37" y="30.08">6</tspan><tspan class="cls-44" x="73.98" y="30.08">0</tspan><tspan class="cls-60" x="80.66" y="30.08">0</tspan><tspan class="cls-46" x="87.57" y="30.08">-</tspan><tspan class="cls-71" x="91.95" y="30.08">6</tspan><tspan class="cls-78" x="98.47" y="30.08">5</tspan><tspan class="cls-24" x="105.03" y="30.08">8</tspan><tspan x="111.43" y="30.08">2</tspan></text>
  <g>
    <path class="cls-4" d="M281.65,129.1h10.12c.7,0,1.26.57,1.26,1.26v7.59c0,.7-.57,1.26-1.26,1.26h-10.12c-.7,0-1.26-.57-1.26-1.26v-7.59c0-.7.57-1.26,1.26-1.26Z"/>
    <rect class="cls-3" x="280.39" y="129.1" width="12.64" height="10.12" rx="1.26" ry="1.26"/>
    <path class="cls-4" d="M293.03,130.36l-6.32,4.43-6.32-4.43"/>
    <polyline class="cls-3" points="293.03 130.36 286.71 134.79 280.39 130.36"/>
  </g>
  <g>
    <path class="cls-4" d="M291.25,169.06v-11.53c0-.58-.51-1.05-1.13-1.05h-6.81c-.63,0-1.13.47-1.13,1.05v11.53c0,.58.51,1.05,1.13,1.05h6.81c.63,0,1.13-.47,1.13-1.05Z"/>
    <path class="cls-3" d="M291.25,169.06v-11.53c0-.58-.51-1.05-1.13-1.05h-6.81c-.63,0-1.13.47-1.13,1.05v11.53c0,.58.51,1.05,1.13,1.05h6.81c.63,0,1.13-.47,1.13-1.05Z"/>
    <path class="cls-4" d="M286.71,159.63c.47,0,.85-.35.85-.79s-.38-.79-.85-.79-.85.35-.85.79.38.79.85.79Z"/>
    <ellipse class="cls-4" cx="286.71" cy="158.84" rx=".85" ry=".79"/>
  </g>
</svg>